<svg xmlns="http://www.w3.org/2000/svg" viewBox="0 0 97.76 65.1" width="85" height="57"><title>Command_new</title><g id="Слой_2" data-name="Слой 2"><g id="Слой_1-2" data-name="Слой 1"><path d="M66.21,36.67l-8.66-3.84a1.71,1.71,0,0,1-1-1.55V28.9A12.63,12.63,0,0,0,61.32,19V15.66a3.09,3.09,0,0,0,1.6-2.7v-.32A12.65,12.65,0,0,0,50.28,0H47.09A12.65,12.65,0,0,0,34.45,12.64v2.95a3.1,3.1,0,0,0,1.19,2.5,2.48,2.48,0,0,0,.4.26V19a12.63,12.63,0,0,0,4.78,9.89v2.38a1.7,1.7,0,0,1-1,1.55l-8.66,3.84a7.87,7.87,0,0,0-4.66,7.19V63.61a1.49,1.49,0,1,0,3,0V43.86a4.36,4.36,0,0,1,0-.51l4,4a3.25,3.25,0,0,1,1,2.32v14a1.49,1.49,0,0,0,3,0v-14a6.2,6.2,0,0,0-1.84-4.43l-4.75-4.76a5,5,0,0,1,1.52-1.07l8.52-3.79,6.31,6.32V63.61a1.49,1.49,0,1,0,3,0V41.93l6.32-6.32L65,39.4a4.9,4.9,0,0,1,1.53,1.07l-4.76,4.76a6.23,6.23,0,0,0-1.83,4.43v14a1.49,1.49,0,1,0,3,0v-14a3.25,3.25,0,0,1,1-2.32l4-4a4.36,4.36,0,0,1,0,.51V63.61a1.49,1.49,0,0,0,3,0V43.86A7.89,7.89,0,0,0,66.21,36.67ZM48.68,39.2l-5.54-5.54a4.68,4.68,0,0,0,.66-2.38v-.61a12.64,12.64,0,0,0,9.76,0v.61a4.68,4.68,0,0,0,.66,2.38Zm0-10.53A9.67,9.67,0,0,1,39,19v-.67a8.72,8.72,0,0,0,2.71-1.76,1.49,1.49,0,0,0-2-2.19,5.38,5.38,0,0,1-2.22,1.33h0a.19.19,0,0,1,0-.13V12.64A9.67,9.67,0,0,1,47.09,3h3.19a9.66,9.66,0,0,1,9.65,9.66V13s0,.09-.06.09C50.94,14.83,46.47,11.5,45,10a1.49,1.49,0,0,0-2.11,2.11c4.63,4.63,11.38,4.71,15.49,4.22V19A9.67,9.67,0,0,1,48.68,28.67Z"/><path d="M26.87,28.57V25.38a11,11,0,0,0-5.06-9.28,6.18,6.18,0,0,0,.28-1.87,6.27,6.27,0,1,0-12.53,0,6.14,6.14,0,0,0,.28,1.87,11.06,11.06,0,0,0-5.06,9.28v3.19a11,11,0,0,0,4.78,9.09v3.27a1.69,1.69,0,0,1-.94,1.52L3.47,45A6.24,6.24,0,0,0,0,50.64v13a1.49,1.49,0,0,0,3,0V51.28l2.43,2.43a3.25,3.25,0,0,1,1,2.32v7.58a1.49,1.49,0,0,0,3,0V56A6.23,6.23,0,0,0,7.52,51.6L4.14,48.22l0,0a3.58,3.58,0,0,1,.71-.49L10,45.12a4.6,4.6,0,0,0,.74-.46l3.65,3.64V63.61a1.49,1.49,0,0,0,3,0V48.3L21,44.66a4.6,4.6,0,0,0,.74.46l1.42.71a1.44,1.44,0,0,0,.67.16,1.49,1.49,0,0,0,.66-2.83L23,42.45a1.68,1.68,0,0,1-.94-1.51V37.66A11,11,0,0,0,26.87,28.57Zm-11-17.63a3.29,3.29,0,0,1,3.28,3.29,2.88,2.88,0,0,1-.05.59,11.14,11.14,0,0,0-6.47,0,3.81,3.81,0,0,1-.05-.59A3.29,3.29,0,0,1,15.83,10.94Zm0,6.38a8.07,8.07,0,0,1,8.06,8.06v.54a9.38,9.38,0,0,1-10.06-3,1.47,1.47,0,0,0-2.24-.16,9.93,9.93,0,0,1-3.83,2.44A8.08,8.08,0,0,1,15.83,17.32Zm0,28.25-3.45-3.44a4.7,4.7,0,0,0,.16-1.2V39.12a11,11,0,0,0,6.57,0v1.81a4.7,4.7,0,0,0,.16,1.2Zm0-8.94a8.07,8.07,0,0,1-8.07-8.06v-.31a11.91,11.91,0,0,0,4.79-2.39,13.43,13.43,0,0,0,2.76,2A11.89,11.89,0,0,0,21,29.36,12.54,12.54,0,0,0,23.88,29,8.08,8.08,0,0,1,15.83,36.63Z"/><path d="M94.3,41.84,86,37.67A1.68,1.68,0,0,1,85,36.16V34A9.41,9.41,0,0,0,88.2,27v-1.7h.11a1.49,1.49,0,0,0,1.49-1.49V20.6a9.46,9.46,0,0,0-9.46-9.45H77.16A9.46,9.46,0,0,0,67.7,20.6v3.19a1.49,1.49,0,0,0,1.49,1.49h.11V27A9.41,9.41,0,0,0,72.48,34v2.12a1.68,1.68,0,0,1-.94,1.51,1.5,1.5,0,0,0,.67,2.83,1.47,1.47,0,0,0,.67-.16,5.09,5.09,0,0,0,.74-.46l3.64,3.64V63.61a1.49,1.49,0,0,0,3,0V43.52l3.64-3.64a5.09,5.09,0,0,0,.74.46l8.07,4-2.44,2.45a6.22,6.22,0,0,0-1.84,4.43V63.61a1.49,1.49,0,1,0,3,0V51.25a3.27,3.27,0,0,1,1-2.32l2.32-2.32a3.34,3.34,0,0,1,.11.84V63.61a1.49,1.49,0,1,0,3,0V47.45A6.25,6.25,0,0,0,94.3,41.84ZM70.68,22V20.6h0a6.48,6.48,0,0,1,6.48-6.47h3.18a6.48,6.48,0,0,1,6.48,6.47v1.66a22.72,22.72,0,0,1-10.43-2.9,1.54,1.54,0,0,0-.82-.25,1.49,1.49,0,0,0-1.06.44A9.62,9.62,0,0,1,70.68,22ZM78.75,40.8l-3.44-3.45a4.68,4.68,0,0,0,.15-1.19v-.32a9.47,9.47,0,0,0,6.58,0v.32a4.68,4.68,0,0,0,.15,1.19Zm0-7.35A6.47,6.47,0,0,1,72.28,27V24.57h0a12.44,12.44,0,0,0,3.49-2.13,26.7,26.7,0,0,0,9.45,2.69V27A6.47,6.47,0,0,1,78.75,33.45Z"/></g></g></svg>