<svg xmlns="http://www.w3.org/2000/svg" viewBox="0 0 63.97 70" width="57" height="63"><title>homework</title><g id="Слой_2" data-name="Слой 2"><g id="Слой_1-2" data-name="Слой 1"><path d="M44.18,41.86a1.36,1.36,0,1,1,1.36-1.16,1.38,1.38,0,0,1-1.36,1.16Z"/><path d="M35.49,17.65H9.76a1.37,1.37,0,0,1,0-2.74H35.49a1.37,1.37,0,0,1,0,2.74Z"/><path d="M35.49,33H9.76a1.37,1.37,0,0,1,0-2.74H35.49a1.37,1.37,0,0,1,0,2.74Z"/><path d="M35.49,41.75H9.76a1.37,1.37,0,0,1,0-2.74H35.49a1.37,1.37,0,0,1,0,2.74Z"/><path d="M27.11,50.5H9.76a1.37,1.37,0,0,1,0-2.73H27.11a1.37,1.37,0,1,1,0,2.73Z"/><path d="M40.6,2.74H37.15V1.37a1.37,1.37,0,1,0-2.73,0V2.74H28.48V1.37a1.37,1.37,0,1,0-2.73,0V2.74H19.81V1.37a1.37,1.37,0,0,0-2.74,0V2.74H11.13V1.37a1.37,1.37,0,1,0-2.73,0V2.74H5A5,5,0,0,0,0,7.68V65.05a5,5,0,0,0,5,5H40.6a5,5,0,0,0,4.95-5V46.65a1.37,1.37,0,0,0-2.73,0v18.4a2.23,2.23,0,0,1-2.22,2.22H5a2.23,2.23,0,0,1-2.22-2.22V7.68A2.22,2.22,0,0,1,5,5.47H8.4V7.11a1.37,1.37,0,1,0,2.73,0V5.47h5.94V7.11a1.37,1.37,0,1,0,2.74,0V5.47h5.94V7.11a1.37,1.37,0,1,0,2.73,0V5.47h5.94V7.11a1.37,1.37,0,1,0,2.73,0V5.47H40.6a2.22,2.22,0,0,1,2.22,2.21V34.29a1.37,1.37,0,1,0,2.73,0V7.68A5,5,0,0,0,40.6,2.74Z"/><path d="M64,61.43V7.35a4.49,4.49,0,0,0-4.48-4.48H55.6a4.47,4.47,0,0,0-4.48,4.48V61.5a1.37,1.37,0,0,0,.25.79l5.06,7.13a1.34,1.34,0,0,0,1.11.58,1.37,1.37,0,0,0,1.12-.58l5-7.12a1.4,1.4,0,0,0,.25-.79v-.08ZM61.23,14v4.49H53.85V14h7.38Zm-7.38,7.22h7.38v36.6l-.62-.68a1.37,1.37,0,0,0-2.08.06l-1,1.23-1-1.23a1.35,1.35,0,0,0-1-.52h0a1.37,1.37,0,0,0-1,.46l-.62.68Zm.51-15.14A1.75,1.75,0,0,1,55.6,5.6h3.88a1.75,1.75,0,0,1,1.75,1.74v4H53.85v-4a1.72,1.72,0,0,1,.51-1.23Zm3.19,60.15-3.34-4.71,1.22-1.36,1,1.31a1.38,1.38,0,0,0,2.14,0l1-1.3,1.23,1.36Z"/></g></g></svg>