<svg xmlns="http://www.w3.org/2000/svg" xmlns:xlink="http://www.w3.org/1999/xlink" viewBox="0 0 779.28 50.23"><defs><style>.cls-1{fill:#3c58bf;}.cls-2{fill:#293688;}.cls-3{fill:#ffbc00;}.cls-4{fill:#f7981d;}.cls-5{fill:#ed7c00;}.cls-6{fill:#051244;}.cls-7{fill:#ffb600;}.cls-8{fill:#ff8500;}.cls-9{fill:#ff5050;}.cls-10{fill:#e52836;}.cls-11{fill:#cb2026;}.cls-12{fill:#fff;}.cls-13{fill:#dce5e5;}.cls-14{fill:#37a72e;}.cls-14,.cls-15,.cls-21,.cls-22{fill-rule:evenodd;}.cls-15{fill:url(#Безымянный_градиент_3);}.cls-16{fill:#5f6368;}.cls-17{fill:#4285f4;}.cls-18{fill:#34a853;}.cls-19{fill:#fbbc04;}.cls-20{fill:#ea4335;}.cls-21,.cls-23{fill:#3a3f4c;}.cls-22,.cls-24{fill:#01bf62;}</style><linearGradient id="Безымянный_градиент_3" x1="-33.58" y1="323.98" x2="-33.42" y2="323.98" gradientTransform="matrix(201.76, 0, 0, -79, 7091.89, 25610.5)" gradientUnits="userSpaceOnUse"><stop offset="0" stop-color="#00a0e5"/><stop offset="1" stop-color="#0077c3"/></linearGradient></defs><title>icons_pay_sber</title><g id="Слой_2" data-name="Слой 2"><g id="Слой_1-2" data-name="Слой 1"><path d="M531.34,10.18a6.3,6.3,0,0,1-5.05,2.38,7.1,7.1,0,0,1,1.81-5.22,7.52,7.52,0,0,1,5-2.58,7.59,7.59,0,0,1-1.76,5.42m1.74,2.76c-2.78-.16-5.16,1.59-6.49,1.59S523.23,13,521,13.06a8.24,8.24,0,0,0-7,4.25c-3,5.16-.78,12.81,2.12,17,1.42,2.08,3.13,4.36,5.37,4.28s3-1.38,5.52-1.38,3.33,1.38,5.57,1.34,3.78-2.08,5.21-4.16a18.22,18.22,0,0,0,2.32-4.79,7.54,7.54,0,0,1-4.53-6.86,7.7,7.7,0,0,1,3.67-6.45,8,8,0,0,0-6.21-3.37m16.08-5.8V38.35H554V27.68h6.71c6.13,0,10.43-4.2,10.43-10.29S566.92,7.14,560.87,7.14ZM554,11.22h5.59c4.2,0,6.61,2.25,6.61,6.19s-2.41,6.21-6.63,6.21H554Zm26,27.37a8,8,0,0,0,7.15-4h.1v3.74h4.48V22.82c0-4.51-3.6-7.41-9.15-7.41-5.14,0-9,2.94-9.09,7h4.37c.36-1.92,2.14-3.18,4.58-3.18,3,0,4.63,1.38,4.63,3.93v1.72l-6,.36c-5.62.34-8.67,2.64-8.67,6.64S575.49,38.59,580,38.59Zm1.3-3.7c-2.58,0-4.22-1.24-4.22-3.15s1.58-3.1,4.6-3.28l5.39-.34v1.76C587.06,32.81,584.58,34.89,581.29,34.89Zm16.42,12c4.73,0,6.95-1.8,8.89-7.27l8.51-23.86h-4.93l-5.7,18.44h-.1l-5.71-18.44h-5.06l8.2,22.72-.44,1.38c-.74,2.35-1.94,3.25-4.08,3.25-.38,0-1.12,0-1.42-.08v3.74A13.33,13.33,0,0,0,597.71,46.84Z"/><polygon class="cls-1" points="40.77 41.77 46.42 10 55.25 10 49.77 41.77 40.77 41.77"/><polygon class="cls-2" points="40.77 41.77 48.01 10 55.25 10 49.77 41.77 40.77 41.77"/><path class="cls-1" d="M81.72,10.35A22.51,22.51,0,0,0,73.6,8.94c-8.82,0-15.18,4.41-15.18,10.77,0,4.76,4.42,7.24,8,8.82S71,31.18,71,32.59c0,2.12-2.83,3.18-5.3,3.18A19.25,19.25,0,0,1,57.19,34L56,33.48l-1.23,7.23a28.44,28.44,0,0,0,10.06,1.77c9.35,0,15.53-4.41,15.53-11.12,0-3.71-2.29-6.53-7.59-8.83-3.18-1.59-5.12-2.47-5.12-4.06,0-1.41,1.59-2.82,5.12-2.82a16.32,16.32,0,0,1,6.71,1.23l.88.36,1.41-6.89Z"/><path class="cls-2" d="M81.72,10.35A22.51,22.51,0,0,0,73.6,8.94C64.78,8.94,60,13.35,60,19.71c0,4.76,2.83,7.24,6.36,8.82S71,31.18,71,32.59c0,2.12-2.83,3.18-5.3,3.18A19.25,19.25,0,0,1,57.19,34L56,33.48l-1.23,7.23a28.44,28.44,0,0,0,10.06,1.77c9.35,0,15.53-4.41,15.53-11.12,0-3.71-2.29-6.53-7.59-8.83-3.18-1.59-5.12-2.47-5.12-4.06,0-1.41,1.59-2.82,5.12-2.82a16.32,16.32,0,0,1,6.71,1.23l.88.36,1.41-6.89Z"/><path class="cls-1" d="M96.9,10c-2.12,0-3.7.18-4.59,2.3L79.08,41.77h9.53l1.76-5.29h11.3l1.06,5.29h8.47L103.79,10ZM92.84,31.18c.53-1.59,3.53-9.35,3.53-9.35s.71-1.94,1.24-3.18l.53,3s1.76,7.94,2.12,9.71H92.84Z"/><path class="cls-2" d="M99,10c-2.12,0-3.71.18-4.59,2.3L79.08,41.77h9.53l1.76-5.29h11.3l1.06,5.29h8.47L103.79,10ZM92.84,31.18c.71-1.76,3.53-9.35,3.53-9.35s.71-1.94,1.24-3.18l.53,3s1.76,7.94,2.12,9.71H92.84Z"/><path class="cls-1" d="M24.53,32.24l-.88-4.59c-1.59-5.29-6.71-11.12-12.35-13.94L19.24,42h9.53l14.3-31.77H33.54Z"/><path class="cls-2" d="M24.53,32.24l-.88-4.59c-1.59-5.29-6.71-11.12-12.35-13.94L19.24,42h9.53l14.3-31.77H35.3Z"/><path class="cls-3" d="M0,10l1.59.35c11.3,2.65,19.06,9.36,22.06,17.3l-3.18-15C20,10.53,18.36,10,16.42,10Z"/><path class="cls-4" d="M0,10H0c11.3,2.65,20.65,9.53,23.65,17.48l-3-12.54a4.31,4.31,0,0,0-4.23-3.35Z"/><path class="cls-5" d="M0,10H0c11.3,2.65,20.65,9.53,23.65,17.48l-2.12-6.89c-.53-2.12-1.23-4.23-3.7-5.12Z"/><path class="cls-6" d="M33.36,31.18l-6-6-2.83,6.71-.7-4.41c-1.59-5.3-6.71-11.12-12.36-13.95l8,28.24H29Z"/><polygon class="cls-6" points="49.77 41.77 42.19 34.01 40.77 41.77 49.77 41.77"/><path class="cls-6" d="M70.07,30.83h0c.71.7,1.06,1.23.89,1.94,0,2.12-2.83,3.18-5.3,3.18a19.11,19.11,0,0,1-8.47-1.77L56,33.65l-1.23,7.24a28.69,28.69,0,0,0,10.06,1.76c5.65,0,10.24-1.58,12.88-4.41Z"/><path class="cls-6" d="M80.31,41.77h8.3l1.76-5.29h11.3l1.06,5.29h8.47l-3-12.88L97.61,18.65l.53,2.82s1.76,8,2.12,9.71H92.84c.71-1.76,3.53-9.35,3.53-9.35s.71-1.94,1.24-3.18"/><path class="cls-7" d="M213.39,25.8a24.44,24.44,0,0,1-48.87,0h0a24.44,24.44,0,0,1,48.87,0Z"/><path class="cls-4" d="M189,1.37A24.49,24.49,0,0,1,213.39,25.8h0a24.44,24.44,0,0,1-48.87,0"/><path class="cls-8" d="M189,1.37A24.49,24.49,0,0,1,213.39,25.8h0A24.42,24.42,0,0,1,189,50.23"/><path class="cls-9" d="M156.12,1.37a24.43,24.43,0,0,0,.26,48.86,24.68,24.68,0,0,0,16.41-6.33h0a23.18,23.18,0,0,0,2.46-2.59h-5a29.59,29.59,0,0,1-1.81-2.45h8.66a17,17,0,0,0,1.42-2.59H167a15.38,15.38,0,0,1-1-2.59h13.45a25.79,25.79,0,0,0,1.29-7.75,33.17,33.17,0,0,0-.52-5.17h-15a18.82,18.82,0,0,1,.64-2.59h13.45a15.27,15.27,0,0,0-1-2.58H166.85A24.5,24.5,0,0,1,168.27,13h8.66A12.51,12.51,0,0,0,175,10.41h-4.78A21.08,21.08,0,0,1,172.67,8a23.87,23.87,0,0,0-16.42-6.34C156.25,1.37,156.25,1.37,156.12,1.37Z"/><path class="cls-10" d="M131.94,25.8a24.42,24.42,0,0,0,24.44,24.43,24.68,24.68,0,0,0,16.41-6.33h0a23.18,23.18,0,0,0,2.46-2.59h-5a29.59,29.59,0,0,1-1.81-2.45h8.66a17,17,0,0,0,1.42-2.59H167a15.38,15.38,0,0,1-1-2.59h13.45a25.79,25.79,0,0,0,1.29-7.75,33.17,33.17,0,0,0-.52-5.17h-15a18.82,18.82,0,0,1,.64-2.59h13.45a15.27,15.27,0,0,0-1-2.58H166.85A24.5,24.5,0,0,1,168.27,13h8.66A12.51,12.51,0,0,0,175,10.41h-4.78A21.08,21.08,0,0,1,172.67,8a23.87,23.87,0,0,0-16.42-6.34h-.13"/><path class="cls-11" d="M156.38,50.23a24.68,24.68,0,0,0,16.41-6.33h0a23.18,23.18,0,0,0,2.46-2.59h-5a29.59,29.59,0,0,1-1.81-2.45h8.66a17,17,0,0,0,1.42-2.59H167a15.38,15.38,0,0,1-1-2.59h13.45a25.79,25.79,0,0,0,1.29-7.75,33.17,33.17,0,0,0-.52-5.17h-15a18.82,18.82,0,0,1,.64-2.59h13.45a15.27,15.27,0,0,0-1-2.58H166.85A24.5,24.5,0,0,1,168.27,13h8.66A12.51,12.51,0,0,0,175,10.41h-4.78A21.08,21.08,0,0,1,172.67,8a23.87,23.87,0,0,0-16.42-6.34h-.13"/><path class="cls-12" d="M165,32l.39-2.19a5.63,5.63,0,0,1-.65.13c-.91,0-1-.52-.91-.78l.78-4.53h1.42l.39-2.45h-1.29l.26-1.55h-2.59s-1.55,8.53-1.55,9.56a1.94,1.94,0,0,0,2.07,2.2A4,4,0,0,0,165,32Z"/><path class="cls-12" d="M165.94,27.87c0,3.62,2.46,4.52,4.53,4.52a6.63,6.63,0,0,0,2.71-.39l.52-2.45a7.8,7.8,0,0,1-2.72.64c-2.84,0-2.32-2.06-2.32-2.06H174a16.92,16.92,0,0,0,.39-2.33,3.51,3.51,0,0,0-3.75-3.75C167.88,21.79,165.94,24.63,165.94,27.87Zm4.53-3.75c1.42,0,1.16,1.68,1.16,1.81h-2.84C168.79,25.8,169.05,24.12,170.47,24.12Z"/><path class="cls-12" d="M186.89,32l.51-2.84a6.31,6.31,0,0,1-2.2.65c-1.81,0-2.58-1.43-2.58-3,0-3.1,1.55-4.78,3.36-4.78a4.33,4.33,0,0,1,2.33.78l.39-2.72a9.13,9.13,0,0,0-3-.65c-3,0-5.94,2.59-5.94,7.5,0,3.23,1.55,5.43,4.65,5.43A11.66,11.66,0,0,0,186.89,32Z"/><path class="cls-12" d="M150.82,21.79a9.18,9.18,0,0,0-3.11.52l-.38,2.2a7.57,7.57,0,0,1,2.84-.52c.91,0,1.68.13,1.68.9,0,.52-.13.65-.13.65h-1.16c-2.2,0-4.66.9-4.66,3.88,0,2.33,1.56,2.84,2.46,2.84a3.91,3.91,0,0,0,2.72-1.16l-.13,1h2.32l1-7.11C154.31,21.92,151.72,21.79,150.82,21.79Zm.51,5.82c0,.39-.25,2.45-1.81,2.45a1,1,0,0,1-1-1c0-.65.39-1.55,2.33-1.55A2.06,2.06,0,0,0,151.33,27.61Z"/><path class="cls-12" d="M156.76,32.26c.65,0,3.88.13,3.88-3.36,0-3.23-3.1-2.58-3.1-3.88,0-.64.52-.9,1.42-.9.39,0,1.81.13,1.81.13l.39-2.33a9.83,9.83,0,0,0-2.46-.26c-1.94,0-3.88.78-3.88,3.36,0,3,3.24,2.72,3.24,3.88,0,.78-.91.91-1.55.91a8.39,8.39,0,0,1-2.33-.39l-.39,2.33C153.92,32,154.57,32.26,156.76,32.26Z"/><path class="cls-12" d="M208.35,19.72l-.52,3.49a3.6,3.6,0,0,0-2.46-1.29c-2.32,0-4.39,2.84-4.39,6.21,0,2.06,1,4.26,3.23,4.26a3.44,3.44,0,0,0,2.45-1l-.12.9h2.58l1.94-12.41Zm-1.17,6.85c0,1.43-.64,3.24-2.07,3.24-.9,0-1.42-.78-1.42-2.07,0-2.07.91-3.36,2.07-3.36C206.66,24.38,207.18,25,207.18,26.57Z"/><path class="cls-12" d="M136.73,32.13l1.55-9.3.26,9.3h1.81l3.36-9.3-1.43,9.3H145l2.07-12.41H142.8l-2.58,7.63-.13-7.63h-3.75l-2.07,12.41Z"/><path class="cls-12" d="M176.8,32.13c.78-4.26.91-7.75,2.72-7.11a10.2,10.2,0,0,1,.9-3h-.52c-1.16,0-2.06,1.55-2.06,1.55l.25-1.42h-2.45L174,32.26h2.84Z"/><path class="cls-12" d="M192.83,21.79a9.08,9.08,0,0,0-3.1.52l-.39,2.2a7.66,7.66,0,0,1,2.85-.52c.9,0,1.68.13,1.68.9,0,.52-.13.65-.13.65h-1.17c-2.19,0-4.65.9-4.65,3.88,0,2.33,1.55,2.84,2.46,2.84a3.87,3.87,0,0,0,2.71-1.16l-.13,1h2.33l1-7.11C196.45,21.92,193.74,21.79,192.83,21.79Zm.65,5.82c0,.39-.26,2.45-1.81,2.45a1,1,0,0,1-1-1c0-.65.39-1.55,2.33-1.55C193.35,27.61,193.35,27.61,193.48,27.61Z"/><path class="cls-12" d="M198.52,32.13c.78-4.26.91-7.75,2.72-7.11a9.89,9.89,0,0,1,.9-3h-.52c-1.16,0-2.07,1.55-2.07,1.55l.26-1.42h-2.45l-1.68,10.08h2.84Z"/><path class="cls-13" d="M161,30.19a1.94,1.94,0,0,0,2.07,2.2A4.93,4.93,0,0,0,165,32l.39-2.19a5.63,5.63,0,0,1-.65.13c-.91,0-1-.52-.91-.78l.78-4.53h1.42l.39-2.45h-1.29l.26-1.55"/><path class="cls-13" d="M167.24,27.87c0,3.62,1.16,4.52,3.23,4.52a6.63,6.63,0,0,0,2.71-.39l.52-2.45a7.8,7.8,0,0,1-2.72.64c-2.84,0-2.32-2.06-2.32-2.06H174a16.92,16.92,0,0,0,.39-2.33,3.51,3.51,0,0,0-3.75-3.75C167.88,21.79,167.24,24.63,167.24,27.87Zm3.23-3.75c1.42,0,1.68,1.68,1.68,1.81h-3.36C168.79,25.8,169.05,24.12,170.47,24.12Z"/><path class="cls-13" d="M186.89,32l.51-2.84a6.31,6.31,0,0,1-2.2.65c-1.81,0-2.58-1.43-2.58-3,0-3.1,1.55-4.78,3.36-4.78a4.33,4.33,0,0,1,2.33.78l.39-2.72a9.13,9.13,0,0,0-3-.65c-3,0-4.65,2.59-4.65,7.5,0,3.23.26,5.43,3.36,5.43A11.66,11.66,0,0,0,186.89,32Z"/><path class="cls-13" d="M147.33,24.63a7.7,7.7,0,0,1,2.84-.51c.91,0,1.68.13,1.68.9,0,.52-.13.65-.13.65h-1.16c-2.2,0-4.66.9-4.66,3.88,0,2.32,1.56,2.84,2.46,2.84a3.91,3.91,0,0,0,2.72-1.16l-.13,1h2.32l1-7.11c0-3-2.59-3.1-3.62-3.1m1.94,5.56c0,.39-1.55,2.45-3.11,2.45a1,1,0,0,1-1-1c0-.65.39-1.55,2.33-1.55A10.52,10.52,0,0,0,152.63,27.61Z"/><path class="cls-13" d="M153.92,32a10.91,10.91,0,0,0,3,.26c.65,0,3.88.13,3.88-3.36,0-3.23-3.1-2.58-3.1-3.88,0-.64.52-.9,1.42-.9.39,0,1.81.13,1.81.13l.39-2.33a9.83,9.83,0,0,0-2.46-.26c-1.94,0-2.58.78-2.58,3.36,0,3,1.94,2.72,1.94,3.88,0,.78-.91.91-1.56.91"/><path class="cls-13" d="M207.83,23.21a3.6,3.6,0,0,0-2.46-1.29c-2.32,0-3.1,2.84-3.1,6.21,0,2.06-.26,4.26,1.94,4.26a3.44,3.44,0,0,0,2.45-1l-.12.9h2.58l1.94-12.41m-3.36,6.72c0,1.43-1.16,3.24-2.59,3.24-.9,0-1.42-.78-1.42-2.07,0-2.07.91-3.36,2.07-3.36A2,2,0,0,1,207.7,26.57Z"/><path class="cls-13" d="M136.73,32.13l1.55-9.3.26,9.3h1.81l3.36-9.3-1.43,9.3H145l2.07-12.41h-3.23l-3.62,7.63-.13-7.63h-1.42l-4.4,12.41Z"/><path class="cls-13" d="M174.09,32.13h2.71c.78-4.26.91-7.75,2.72-7.11a10.2,10.2,0,0,1,.9-3h-.52c-1.16,0-2.06,1.55-2.06,1.55l.25-1.42"/><path class="cls-13" d="M189.34,24.63a7.79,7.79,0,0,1,2.85-.51c.9,0,1.68.13,1.68.9,0,.52-.13.65-.13.65h-1.17c-2.19,0-4.65.9-4.65,3.88,0,2.32,1.55,2.84,2.46,2.84a3.87,3.87,0,0,0,2.71-1.16l-.13,1h2.33l1-7.11c0-3-2.58-3.1-3.62-3.1m1.94,5.56c0,.39-1.55,2.45-3.1,2.45a1,1,0,0,1-1-1c0-.65.38-1.55,2.32-1.55A11.33,11.33,0,0,0,194.64,27.61Z"/><path class="cls-13" d="M195.81,32.13h2.71c.78-4.26.91-7.75,2.72-7.11a9.89,9.89,0,0,1,.9-3h-.52c-1.16,0-2.07,1.55-2.07,1.55l.26-1.42"/><g id="Page-1"><g id="Artboard"><g id="Group"><path id="Combined-Shape" class="cls-14" d="M318.18,24.29V41.42h9.51V31.27h10.79a10.55,10.55,0,0,0,9.85-7Z"/><path id="Combined-Shape-2" data-name="Combined-Shape" class="cls-15" d="M316.91,10.18c.55,7,7.17,12.53,15.26,12.53h16.55a10.91,10.91,0,0,0,.19-2,10.54,10.54,0,0,0-10.47-10.54Z"/><path id="Combined-Shape-3" data-name="Combined-Shape" class="cls-14" d="M302.82,22.54v0h0a.57.57,0,0,1,1.07.26h0V41.26h9.52V10.18H303.9a3.81,3.81,0,0,0-3.08,2l-7.57,16.24a.51.51,0,0,1-.09.18h0a.64.64,0,0,1-.52.27.64.64,0,0,1-.64-.63V10.18h-9.51V41.26H292a3.82,3.82,0,0,0,3-2l7.77-16.67s0,0,0,0Z"/><path id="Combined-Shape-4" data-name="Combined-Shape" class="cls-14" d="M267.28,23.07l-5.56,18.19h-6.84l-5.57-18.2a.63.63,0,0,0-1.24.11h0V41.26h-9.52V10.18h10.6a4.54,4.54,0,0,1,4.1,3l4.63,15.15c.23.75.61.75.84,0l4.63-15.15a4.53,4.53,0,0,1,4.1-3h10.6V41.26h-9.52V23.18h0a.63.63,0,0,0-1.25-.1Z"/></g></g></g><path class="cls-16" d="M428.77,25.29v13h-4.13V6.16h10.95a9.85,9.85,0,0,1,7.09,2.78,8.92,8.92,0,0,1,3,6.79,8.91,8.91,0,0,1-3,6.82,9.86,9.86,0,0,1-7.09,2.74Zm0-15.17V21.34h6.92a5.59,5.59,0,0,0,4.2-9.41l-.11-.11a5.39,5.39,0,0,0-4.09-1.71h-6.92Z"/><path class="cls-16" d="M455.16,15.59A10.23,10.23,0,0,1,462.39,18,8.67,8.67,0,0,1,465,24.75V38.31h-4V35.26h-.18A7.89,7.89,0,0,1,454.09,39,8.88,8.88,0,0,1,448,36.87a6.87,6.87,0,0,1-2.44-5.39,6.55,6.55,0,0,1,2.58-5.43A11,11,0,0,1,455,24a12.19,12.19,0,0,1,6.06,1.35v-.94a4.7,4.7,0,0,0-1.71-3.66,5.85,5.85,0,0,0-4-1.51,6.33,6.33,0,0,0-5.48,2.92l-3.64-2.29Q449.28,15.6,455.16,15.59Zm-5.34,16a3.34,3.34,0,0,0,1.37,2.7,5,5,0,0,0,3.21,1.08,6.66,6.66,0,0,0,4.65-1.93,6.07,6.07,0,0,0,2.05-4.54,8.49,8.49,0,0,0-5.39-1.54,7,7,0,0,0-4.2,1.22,3.62,3.62,0,0,0-1.69,3Z"/><path class="cls-16" d="M487.72,16.31,473.93,48h-4.27l5.12-11.09-9.07-20.61h4.49l6.56,15.8h.09l6.37-15.8Z"/><path class="cls-17" d="M412.08,22.48a22.42,22.42,0,0,0-.32-3.75H394.34v7.11h10a8.54,8.54,0,0,1-3.69,5.61v4.62h5.95C410.07,32.86,412.08,28.1,412.08,22.48Z"/><path class="cls-18" d="M394.34,40.53a17.63,17.63,0,0,0,12.24-4.46l-5.95-4.61A11.21,11.21,0,0,1,384,25.6h-6.13v4.76A18.47,18.47,0,0,0,394.34,40.53Z"/><path class="cls-19" d="M384,25.6a11.11,11.11,0,0,1,0-7.07V13.77h-6.13a18.49,18.49,0,0,0,0,16.59Z"/><path class="cls-20" d="M394.34,10.9a10.08,10.08,0,0,1,7.09,2.77h0L406.7,8.4a17.76,17.76,0,0,0-12.36-4.81,18.46,18.46,0,0,0-16.5,10.18L384,18.53A11.05,11.05,0,0,1,394.34,10.9Z"/><path class="cls-21" d="M662.57,0a7.55,7.55,0,0,0-1.87.22A6.91,6.91,0,0,0,658.91,0c-3.59,0-6.51,2.62-6.51,5.76h.9c0-2.69,2.54-4.86,5.61-4.86h.22a5.8,5.8,0,0,0-3.07,4.86h.9a3.81,3.81,0,1,1,7.48,0h.9a5.72,5.72,0,0,0-3-4.86h.22c3.07,0,5.61,2.17,5.61,4.86h.9C669.08,2.62,666.16,0,662.57,0Z"/><path class="cls-21" d="M640.65,41.6l3-34.79h32.47l1.69,19.62Z"/><path class="cls-22" d="M665.79,17.21,665,31.65l10.48,10H640.65Z"/><path class="cls-23" d="M692.22,25.13V11.7h8.13V25.13h1.95V10h-12V25.13Zm19.16.24c3,0,5.38-1.65,5.38-6s-2-6-5.14-6c-3.29,0-5.59,2-5.59,5.92C706,23.14,708,25.37,711.38,25.37Zm-3.55-6c0-2.82,1.28-4.31,3.55-4.31s3.58,1.4,3.58,4.31v.06c0,3-1.28,4.34-3.43,4.34-2.4,0-3.7-1.61-3.7-4.34Zm14.11,5.78v-5.2h1.88l4.19,5.2h2.19l-4.84-6,4.38-5.46h-2.06l-3.83,4.87h-1.91V13.65h-1.8V25.13Zm14,.05c-.69,2-1.15,2.29-2,2.29a1.94,1.94,0,0,1-1-.26V29a2.14,2.14,0,0,0,1,.18c1.1,0,2.25-.18,3.77-4.45l4-11.09H739.8l-2.93,9.16-3.51-9.16h-2.08Zm10.1-.05V15.34h5.55v9.79h1.8V13.65h-9.15V25.13Zm18.06,0h1.64v-7.8c0-3-1.36-3.9-4.39-3.9a8.9,8.9,0,0,0-3.69.8v2.08a5.94,5.94,0,0,1,3.49-1.23c1.93,0,2.8.43,2.8,2.27v1.09h-2.58c-3.3,0-4.58,1-4.58,3.51,0,2.21,1.44,3.42,3.73,3.42A3.9,3.9,0,0,0,764,23.49Zm-.15-4.4a2.74,2.74,0,0,1-3.08,2.91c-1.58,0-2.23-.74-2.23-2,0-1.39.6-1.91,2.79-1.91H764ZM776.24,8.9c0,1.35-.67,1.67-1.62,1.67a1.53,1.53,0,0,1-1.76-1.67h-1.73c0,2.17,1.58,3.08,3.53,3.08A3,3,0,0,0,778,8.9Zm-4.85,16.23,4.46-6.37a24.44,24.44,0,0,0,1.69-2.64l.07,0c-.07.8-.13,2.69-.13,4.36v4.63h1.8V13.65h-1.59L773.34,20a32,32,0,0,0-1.8,2.67l-.09,0c.07-.57.13-2,.13-3.34V13.65h-1.79V25.13Z"/><path class="cls-24" d="M693.6,34.25a2.45,2.45,0,0,0-1.22-.25c-1.57,0-2.36.78-2.36,2.44,0,2,.87,2.62,2.33,2.62a2.39,2.39,0,0,0,1.4-.33v-.82a2,2,0,0,1-1.29.42c-1.06,0-1.66-.45-1.66-1.83s.59-1.78,1.48-1.78a2.38,2.38,0,0,1,1.32.39ZM696.91,39c1.26,0,2.26-.69,2.26-2.5S698.33,34,697,34a2.22,2.22,0,0,0-2.35,2.49C694.66,38.11,695.47,39,696.91,39Zm-1.49-2.53c0-1.18.54-1.81,1.49-1.81s1.51.59,1.51,1.81v0c0,1.27-.54,1.82-1.44,1.82s-1.56-.67-1.56-1.82Zm12.48,1.28a3.9,3.9,0,0,1-1.83.49c-1.32,0-2.12-.61-2.12-2.61,0-1.82.7-2.45,2-2.45a3.2,3.2,0,0,1,1.73.47v-.92a5.3,5.3,0,0,0-1.7-.28c-1.94,0-2.94,1-2.94,3.26s1,3.27,3,3.27a4.09,4.09,0,0,0,1.84-.4Zm5-5.87a9.71,9.71,0,0,1-1.94.31c-1.59.22-2.18,1.26-2.18,3.78,0,2.1.75,3,2.3,3s2.24-.77,2.24-2.62-.76-2.24-1.95-2.24a2.16,2.16,0,0,0-1.83.92h0c.12-1.47.42-2,1.74-2.08a5.45,5.45,0,0,0,1.64-.21Zm-3.34,4.42a1.41,1.41,0,0,1,1.57-1.47c.88,0,1.39.36,1.39,1.64s-.47,1.81-1.43,1.81S709.55,37.78,709.55,36.34Zm8.71,1.49a2.42,2.42,0,0,1-1.48.53,1.41,1.41,0,0,1-1.61-1.56h3.44v-.49c0-1.37-.54-2.29-2-2.29s-2.18.86-2.18,2.44c0,1.86.8,2.58,2.36,2.58a2.71,2.71,0,0,0,1.5-.42Zm-3.09-1.68a1.26,1.26,0,0,1,1.4-1.44c.89,0,1.29.45,1.29,1.44Zm5.6,4.44V38.3a1.68,1.68,0,0,0,1.55.74c1.31,0,2-.73,2-2.61,0-1.71-.62-2.41-1.87-2.41a1.61,1.61,0,0,0-1.69.94l0-.85H720v6.48Zm0-4.55a1.25,1.25,0,0,1,1.41-1.33c.9,0,1.38.44,1.38,1.76s-.38,1.89-1.39,1.89a1.27,1.27,0,0,1-1.4-1.36Zm5.11,2.89a12.15,12.15,0,0,0,1.58.09c1.87,0,2.64-.76,2.64-2.14S729.33,35,727.83,35c-.31,0-.69,0-1.13.06V33.29h3v-.73h-3.82Zm.82-3.13a6.15,6.15,0,0,1,.92-.06c1.28,0,1.63.29,1.63,1.17s-.41,1.37-1.73,1.37a4.91,4.91,0,0,1-.82-.06Zm7.64,3.14H735V35.66c0-1.25-.57-1.64-1.85-1.64a3.73,3.73,0,0,0-1.55.34v.87a2.52,2.52,0,0,1,1.47-.51c.81,0,1.17.18,1.17,1v.46h-1.08c-1.39,0-1.92.41-1.92,1.47A1.38,1.38,0,0,0,732.83,39a1.62,1.62,0,0,0,1.46-.79Zm-.07-1.85A1.15,1.15,0,0,1,733,38.32c-.67,0-.94-.31-.94-.83s.26-.81,1.18-.81h1Zm3.22,1.85V36.86h2.4v2.08h.76V34.11h-.76v2h-2.4v-2h-.76v4.83Zm5.66,0V36.76h.8l1.76,2.18h.92l-2-2.53,1.85-2.3h-.87l-1.61,2h-.81v-2h-.75v4.83Zm6.3.1c1.25,0,2.26-.69,2.26-2.5S750.86,34,749.55,34a2.21,2.21,0,0,0-2.35,2.49C747.2,38.11,748,39,749.45,39ZM748,36.51c0-1.18.54-1.81,1.5-1.81s1.5.59,1.5,1.81v0c0,1.27-.54,1.82-1.44,1.82S748,37.69,748,36.54Zm5.84-1.73c.29.6.56,1.17.77,1.55l.79,1.45h.52l.84-1.46c.21-.37.45-.94.73-1.55,0,.55-.11,1.09-.11,1.63v2.54h.76V34.11h-1L755.66,37l-1.53-2.87h-1v4.83h.76v-2.5C753.89,35.88,753.83,35.33,753.79,34.78Z"/></g></g></svg>