<?xml version="1.0" encoding="utf-8"?>
<!-- Generator: Adobe Illustrator 24.0.2, SVG Export Plug-In . SVG Version: 6.00 Build 0)  -->
<svg width="16" height="16" version="1.1" id="Слой_1" xmlns="http://www.w3.org/2000/svg" xmlns:xlink="http://www.w3.org/1999/xlink" x="0px" y="0px"
	 viewBox="0 0 383.6 383.6" style="enable-background:new 0 0 383.6 383.6;" xml:space="preserve">
<style type="text/css">
	.st0{fill:#FF3A00;}
</style>
<path class="st0" d="M159,225.6c-36.7-36.6-44.9-73.3-46.8-88c-0.5-4.1,0.9-8.1,3.8-11L145.7,97c4.3-4.4,5.1-11.1,1.9-16.4
	L100.3,7.2c-3.6-5.8-11-7.9-17.2-4.8L7.4,38.1c-4.9,2.4-7.8,7.7-7.3,13.2c4,37.7,20.4,130.5,111.6,221.7s183.9,107.7,221.7,111.6
	c5.5,0.6,10.7-2.4,13.1-7.3l35.7-75.8c3-6.1,1-13.5-4.8-17.1l-73.3-47.2c-5.2-3.3-12-2.5-16.4,1.9L258,268.6
	c-2.9,2.9-6.9,4.3-11,3.8C232.3,270.5,195.7,262.2,159,225.6L159,225.6z"/>
</svg>
