<svg xmlns="http://www.w3.org/2000/svg" viewBox="0 0 274.92 274.92" width="19" height="19"><defs><style>.cls-1{fill:#002cba;}</style></defs><title>play_blue</title><g id="Слой_2" data-name="Слой 2"><g id="Слой_1-2" data-name="Слой 1"><path class="cls-1" d="M221.48,134.87a5.15,5.15,0,0,0-1.91-1.91l-59.52-34.5-.3-.15-59.22-34a5.2,5.2,0,0,0-7.09,1.92,5.29,5.29,0,0,0-.68,2.58V206.19a5.18,5.18,0,0,0,8.19,4.23l59.1-34L219.57,142a5.2,5.2,0,0,0,1.91-7.09Z"/><path class="cls-1" d="M137.46,0A137.46,137.46,0,1,0,274.92,137.46,137.46,137.46,0,0,0,137.46,0Zm0,249.39A111.93,111.93,0,1,1,249.39,137.46,111.93,111.93,0,0,1,137.46,249.39Z"/></g></g></svg>