<svg xmlns="http://www.w3.org/2000/svg" viewBox="0 0 75.87 63.22" width="72" height="62"><title>video</title><g id="Слой_2" data-name="Слой 2"><g id="Слой_1-2" data-name="Слой 1"><path d="M51.68,27.2a1.23,1.23,0,0,0-.48-.48L31,15.34a1.25,1.25,0,0,0-1.72.47,1.27,1.27,0,0,0-.17.63V39.2A1.27,1.27,0,0,0,31,40.3L51.2,28.92A1.26,1.26,0,0,0,51.68,27.2ZM31.61,37V18.6L48,27.82Z"/><polygon points="25.29 53.11 25.29 50.58 22.76 50.58 22.76 53.11 5.06 53.11 5.06 55.64 22.76 55.64 22.76 58.16 25.29 58.16 25.29 55.64 70.81 55.64 70.81 53.11 25.29 53.11"/><path d="M37.93,7.59A20.23,20.23,0,1,0,58.16,27.82,20.23,20.23,0,0,0,37.93,7.59Zm0,37.93a17.7,17.7,0,1,1,17.71-17.7A17.71,17.71,0,0,1,37.93,45.52Z"/><path d="M72.07,0H3.79A3.79,3.79,0,0,0,0,3.79V59.43a3.79,3.79,0,0,0,3.79,3.79H72.07a3.8,3.8,0,0,0,3.8-3.79V3.79A3.8,3.8,0,0,0,72.07,0Zm1.27,59.43a1.26,1.26,0,0,1-1.27,1.26H3.79a1.26,1.26,0,0,1-1.26-1.26V3.79A1.27,1.27,0,0,1,3.79,2.53H72.07a1.27,1.27,0,0,1,1.27,1.26Z"/><rect x="5.06" y="5.06" width="2.53" height="2.53"/><rect x="10.12" y="5.06" width="2.53" height="2.53"/><rect x="15.17" y="5.06" width="2.53" height="2.53"/></g></g></svg>