<svg xmlns="http://www.w3.org/2000/svg" viewBox="0 0 72.22 72.22" width="62" height="62"><title>webinar</title><g id="Слой_2" data-name="Слой 2"><g id="Слой_1-2" data-name="Слой 1"><path d="M22.15,4.23a1.06,1.06,0,1,0,1.06,1.06A1.06,1.06,0,0,0,22.15,4.23Zm4.23,0a1.06,1.06,0,1,0,1.06,1.06A1.07,1.07,0,0,0,26.38,4.23Zm-8.46,0a1.06,1.06,0,1,0,1,1.06A1.06,1.06,0,0,0,17.92,4.23Zm50,0H59.6V2.75A2.75,2.75,0,0,0,56.85,0H15.38a2.75,2.75,0,0,0-2.75,2.75V6.07H5.29A5.29,5.29,0,0,0,0,11.36V51.2a5.29,5.29,0,0,0,5.29,5.29H30l-.81,6H28a2.19,2.19,0,0,0-2.1,1.6l-1.49,5.37a2.18,2.18,0,0,0,2.1,2.77H45.67a2.16,2.16,0,0,0,1.74-.86,2.14,2.14,0,0,0,.36-1.91l-1.49-5.37a2.18,2.18,0,0,0-2.1-1.6H43l-.81-6H66.93a5.29,5.29,0,0,0,5.29-5.29V8.58a4.35,4.35,0,0,0-4.34-4.35ZM14.74,10.58H31.88a1.06,1.06,0,0,0,0-2.12H14.74V2.75a.64.64,0,0,1,.64-.63H56.85a.63.63,0,0,1,.63.63V4.23h-7a4.36,4.36,0,0,0-4.35,4.23H36.82a1.06,1.06,0,0,0,0,2.12h9.34v5.49a4.35,4.35,0,0,0,4.35,4.35H52.6v2a1.5,1.5,0,0,0,2.56,1.06l2.32-2.33V37.7a1.06,1.06,0,0,0,2.12,0V20.42h6.27V48H59.6V42.63a1.06,1.06,0,0,0-2.12,0V48H49.17V41.77a6.86,6.86,0,0,0-4.39-6.44L41.93,34.2a1.89,1.89,0,0,1-1.21-1.76v-1.2a7.51,7.51,0,0,0,2.93-5.95v-7.9a4.46,4.46,0,0,0-4.45-4.45H33a4.45,4.45,0,0,0-4.44,4.45v7.9a7.51,7.51,0,0,0,2.92,5.95v1.2a1.89,1.89,0,0,1-1.2,1.76l-2.86,1.13a6.86,6.86,0,0,0-4.39,6.44V48H14.74ZM41.77,44a1.06,1.06,0,0,0-1.06,1.06V48h-9.2V45.1a1.06,1.06,0,1,0-2.11,0V48H25.16V41.77a4.79,4.79,0,0,1,3.05-4.48l2.6-1a7.58,7.58,0,0,0,10.6,0l2.6,1a4.79,4.79,0,0,1,3.05,4.48V48H42.83V45.1A1.07,1.07,0,0,0,41.77,44ZM31.48,23.68a12.5,12.5,0,0,0,6.63-1.84,5.11,5.11,0,0,0,1.62,1.23,5.24,5.24,0,0,0,1.8.49v1.73a5.42,5.42,0,0,1-10.84,0V23.65l.79,0Zm-.79-2.15V17.39A2.33,2.33,0,0,1,33,15.06H39.2a2.33,2.33,0,0,1,2.33,2.33v4a3,3,0,0,1-.88-.27,3.1,3.1,0,0,1-1.24-1.09,1.31,1.31,0,0,0-.86-.58,1.33,1.33,0,0,0-1,.21,10.52,10.52,0,0,1-2.43,1.24A10.77,10.77,0,0,1,30.69,21.53Zm8.9,13.53a5.42,5.42,0,0,1-7,0,4,4,0,0,0,1-2.62v0a7.72,7.72,0,0,0,2.5.42,7.62,7.62,0,0,0,2.5-.42v0a4,4,0,0,0,1,2.62Zm4.59,29.53a.08.08,0,0,1,.07,0h0L45.74,70s0,.09-.07.09H26.55s-.08-.06-.06-.09L28,64.64a.06.06,0,0,1,.06,0ZM31.36,62.48l.8-6h7.9l.8,6ZM70.11,51.2a3.18,3.18,0,0,1-3.18,3.17H5.29A3.17,3.17,0,0,1,2.12,51.2V11.36A3.17,3.17,0,0,1,5.29,8.19h7.34V10.3H5.85a1.63,1.63,0,0,0-1.62,1.63V48.52a1.63,1.63,0,0,0,1.62,1.62H66.37A1.63,1.63,0,0,0,68,48.52V20.41a4.39,4.39,0,0,0,2.12-.61ZM12.63,12.42V48H6.35V12.42Zm57.48,3.65a2.23,2.23,0,0,1-2.23,2.23H58.12a1.82,1.82,0,0,0-1.29.54L54.72,21v-.82a1.83,1.83,0,0,0-1.83-1.83H50.51a2.23,2.23,0,0,1-2.23-2.23V8.58a2.23,2.23,0,0,1,2.23-2.23H67.88a2.23,2.23,0,0,1,2.23,2.23Zm-3.73-2.69H52a1.06,1.06,0,1,0,0,2.12H66.38a1.06,1.06,0,1,0,0-2.12Zm0-4.23H52a1.06,1.06,0,1,0,0,2.12H66.38a1.06,1.06,0,1,0,0-2.12Z"/></g></g></svg>