<?xml version="1.0" encoding="utf-8"?>
<!-- Generator: Adobe Illustrator 24.0.2, SVG Export Plug-In . SVG Version: 6.00 Build 0)  -->
<svg width="15" height="15" version="1.1" id="Слой_1" xmlns="http://www.w3.org/2000/svg" xmlns:xlink="http://www.w3.org/1999/xlink" x="0px" y="0px"
	 viewBox="0 0 512 512" style="enable-background:new 0 0 512 512;" xml:space="preserve">
<style type="text/css">
	.st0{fill-rule:evenodd;clip-rule:evenodd;fill:#727272;}
</style>
<g>
	<path class="st0" d="M425.8,85.5c-44.9-45-104.6-69.7-168.3-69.8c-131.1,0-237.8,106.7-237.9,237.8c0,41.9,10.9,82.8,31.7,118.9
		L17.7,495.8l126.1-33.1c34.7,19,73.9,28.9,113.7,29h0.1c131.1,0,237.8-106.7,237.8-237.8C495.4,190.2,470.7,130.5,425.8,85.5z
		 M257.5,451.5L257.5,451.5c-35.6,0-70.3-9.5-100.7-27.6l-7.2-4.3l-74.8,19.6l20-73l-4.7-7.5C70.3,327.3,59.8,291,59.8,253.6
		c0-109,88.7-197.7,197.8-197.7c52.8,0,102.4,20.6,139.8,58s57.9,87,57.8,139.9C455.2,362.8,366.5,451.5,257.5,451.5z M366,303.4
		c-5.9-3-35.2-17.3-40.6-19.3c-5.4-2-9.4-3-13.4,3c-4,5.9-15.4,19.3-18.8,23.3c-3.5,4-6.9,4.5-12.9,1.5c-5.9-3-25.1-9.3-47.8-29.5
		c-17.7-15.8-29.6-35.2-33.1-41.2c-3.5-6,0-8.9,2.6-12.1c6.4-8,12.9-16.4,14.9-20.3c2-4,1-7.4-0.5-10.4c-1.5-3-13.4-32.2-18.3-44.1
		c-4.8-11.6-9.7-10-13.4-10.2c-3.5-0.2-7.4-0.2-11.4-0.2c-4,0-10.4,1.5-15.8,7.4c-5.4,6-20.8,20.3-20.8,49.6s21.3,57.5,24.3,61.5
		s41.9,64,101.5,89.7c14.2,6.1,25.2,9.8,33.9,12.5c14.2,4.5,27.2,3.9,37.4,2.4c11.4-1.7,35.2-14.4,40.1-28.3c5-13.9,5-25.8,3.5-28.3
		C375.9,307.9,371.9,306.4,366,303.4z"/>
</g>
</svg>
