<?xml version="1.0" encoding="utf-8"?>
<!-- Generator: Adobe Illustrator 24.0.2, SVG Export Plug-In . SVG Version: 6.00 Build 0)  -->
<svg width="160" height="46" version="1.1" id="Слой_1" xmlns="http://www.w3.org/2000/svg" xmlns:xlink="http://www.w3.org/1999/xlink" x="0px" y="0px"
	 viewBox="0 0 783 222" style="enable-background:new 0 0 783 222;" xml:space="preserve">
<style type="text/css">
	.st0{fill-rule:evenodd;clip-rule:evenodd;fill:#3A3F4C;}
	.st1{fill-rule:evenodd;clip-rule:evenodd;fill:#01BF62;}
	.st2{fill:#3A3F4C;}
	.st3{fill:#01BF62;}
</style>
<g>
	<path class="st0" d="M116.5,0c-3.6,0-6.8,0.4-9.9,1.2c-2.8-0.8-6.4-1.2-9.5-1.2C78,0,62.4,13.9,62.4,30.6h4.8
		c0-14.3,13.5-25.9,29.8-25.9c0.4,0,0.8,0,1.2,0c-9.5,5.6-16.3,15.1-16.3,25.9h4.8c0-11.1,8.4-20.7,19.9-24.3
		c11.5,3.6,19.9,13.1,19.9,24.3h4.8c0-10.7-6.4-20.3-15.9-25.9c0.4,0,0.8,0,1.2,0c16.3,0,29.8,11.5,29.8,25.9h4.8
		C151.2,13.9,135.6,0,116.5,0z"/>
	<path class="st0" d="M0,221.2l15.9-185h172.6l9,104.3L0,221.2z"/>
	<path class="st1" d="M133.7,91.5l-4,76.8l55.7,52.9H0L133.7,91.5z"/>
	<path class="st2" d="M274.2,133.6V62.2h43.2v71.4h10.4V53h-63.9v80.6H274.2z M376.1,134.9c15.9,0,28.6-8.8,28.6-31.7
		c0-22.1-10.7-31.8-27.3-31.8c-17.5,0-29.7,10.4-29.7,31.5C347.6,123,357.9,134.9,376.1,134.9z M357.2,102.9
		c0-15,6.8-22.9,18.9-22.9c12.2,0,19,7.5,19,22.9v0.3c0,16.1-6.8,23-18.2,23c-12.8,0-19.7-8.5-19.7-23V102.9z M432.2,133.6V106h10
		l22.2,27.7h11.6l-25.7-32l23.3-29h-10.9l-20.4,25.9h-10.1V72.6h-9.6v61.1H432.2z M506.6,133.9c-3.7,10.8-6.1,12.2-10.5,12.2
		c-1.8,0-3.7-0.5-5.3-1.4v9.6c1.3,0.7,3,0.9,5.4,0.9c5.9,0,12-0.9,20-23.6l21.1-59h-10.3l-15.6,48.7l-18.7-48.7h-11.1L506.6,133.9z
		 M560.3,133.6V81.6h29.5v52.1h9.6V72.6h-48.6v61.1H560.3z M656.3,133.6h8.8V92.2c0-15.8-7.3-20.7-23.4-20.7
		c-5.9,0-14.5,1.5-19.6,4.3v11.1c4.1-3.5,11.6-6.6,18.5-6.6c10.3,0,14.9,2.3,14.9,12.1V98h-13.7c-17.5,0-24.3,5.2-24.3,18.7
		c0,11.8,7.6,18.2,19.8,18.2c8.8,0,15.3-4.5,18.4-10L656.3,133.6z M655.5,110.2c0,8.9-5.1,15.4-16.4,15.4c-8.4,0-11.9-3.9-11.9-10.5
		c0-7.4,3.2-10.1,14.9-10.1h13.4V110.2z M720.9,47.3c0,7.1-3.6,8.9-8.6,8.9c-6.3,0-9.3-3.2-9.3-8.9h-9.2c0,11.5,8.4,16.4,18.8,16.4
		c8.9,0,17.5-4.8,17.5-16.4H720.9z M695.1,133.6l23.7-33.9c3.5-4.6,7-10.5,9-14.1l0.3,0.1c-0.3,4.3-0.7,14.3-0.7,23.2v24.7h9.6V72.6
		h-8.4l-23.2,33.5c-3.3,4.6-6.7,9.2-9.6,14.2l-0.5-0.2c0.3-3,0.7-10.6,0.7-17.7V72.6h-9.6v61.1H695.1z"/>
	<path class="st3" d="M281.5,182.1c-1.5-0.8-3.3-1.3-6.5-1.3c-8.3,0-12.6,4.1-12.6,12.9c0,10.4,4.7,14,12.4,14
		c3.4,0,6.1-0.7,7.5-1.7v-4.4c-1.7,1.4-4.3,2.2-6.9,2.2c-5.6,0-8.8-2.4-8.8-9.7c0-7.3,3.2-9.4,7.9-9.4c2.9,0,5.5,0.9,7,2V182.1z
		 M299.1,207.6c6.7,0,12-3.7,12-13.3c0-9.3-4.5-13.4-11.5-13.4c-7.4,0-12.5,4.4-12.5,13.2C287.2,202.6,291.5,207.6,299.1,207.6z
		 M291.2,194.1c0-6.3,2.9-9.6,7.9-9.6c5.1,0,8,3.1,8,9.6v0.1c0,6.8-2.9,9.7-7.7,9.7c-5.4,0-8.3-3.6-8.3-9.7V194.1z M357.6,200.9
		c-1.5,0.8-5.2,2.6-9.7,2.6c-7,0-11.3-3.2-11.3-13.9c0-9.7,3.7-13,10.9-13c4,0,7.5,1.3,9.2,2.5v-4.8c-1.7-0.5-4.7-1.5-9.1-1.5
		c-10.3,0-15.6,5.1-15.6,17.3c0,12.3,5.1,17.3,15.8,17.3c4.6,0,8.2-1.3,9.8-2.1V200.9z M384.1,169.7c-2,1-7.8,1.3-10.3,1.6
		c-8.4,1.2-11.6,6.7-11.6,20.1c0,11.2,4,16.1,12.2,16.1c7.7,0,11.9-4.1,11.9-13.9c0-9.3-4-11.9-10.4-11.9c-3.8,0-7.5,1.6-9.7,4.9
		l-0.1,0c0.7-7.8,2.2-10.6,9.3-11c5.4-0.3,7.8-0.6,8.7-1.1V169.7z M366.3,193.2c0-5,3.4-7.8,8.3-7.8c4.7,0,7.4,1.9,7.4,8.7
		c0,6.7-2.5,9.6-7.6,9.6C369.3,203.7,366.3,200.9,366.3,193.2z M412.6,201.1c-1.9,1.5-4.6,2.8-7.8,2.8c-5.6,0-8.6-2.8-8.6-8.3h18.3
		v-2.6c0-7.3-2.9-12.2-10.8-12.2c-7.5,0-11.6,4.6-11.6,12.9c0,9.9,4.3,13.8,12.5,13.8c3.8,0,6.7-1.4,7.9-2.3V201.1z M396.2,192.2
		c0-5.2,2.8-7.7,7.5-7.7c4.7,0,6.8,2.4,6.8,7.7H396.2z M426,215.8v-12.2c1.3,2.1,3.8,4,8.2,4c7,0,10.6-3.9,10.6-13.9
		c0-9.1-3.3-12.8-9.9-12.8c-4.7,0-7.6,1.6-9,5l-0.2-4.5h-3.6v34.4H426z M426,191.6c0-4,2.3-7.1,7.5-7.1c4.8,0,7.4,2.4,7.4,9.4
		c0,7.3-2,10-7.4,10c-4.7,0-7.4-2.8-7.4-7.2V191.6z M453.2,207c2,0.3,5.5,0.5,8.4,0.5c9.9,0,14.1-4,14.1-11.4
		c0-7.5-4.1-9.9-12.1-9.9c-1.6,0-3.7,0.1-6,0.3V177h15.9v-3.9h-20.3V207z M457.5,190.3c1.7-0.2,3.4-0.3,4.9-0.3
		c6.8,0,8.6,1.6,8.6,6.3c0,4.9-2.2,7.3-9.2,7.3c-1.7,0-3.1-0.1-4.3-0.3V190.3z M498.1,207.1h3.7v-17.4c0-6.6-3.1-8.7-9.8-8.7
		c-2.5,0-6.1,0.6-8.2,1.8v4.7c1.7-1.5,4.9-2.8,7.8-2.8c4.3,0,6.3,1,6.3,5.1v2.4H492c-7.4,0-10.2,2.2-10.2,7.8c0,4.9,3.2,7.7,8.3,7.7
		c3.7,0,6.4-1.9,7.8-4.2L498.1,207.1z M497.8,197.2c0,3.7-2.1,6.5-6.9,6.5c-3.5,0-5-1.6-5-4.4c0-3.1,1.4-4.3,6.3-4.3h5.6V197.2z
		 M514.9,207.1V196h12.8v11.1h4v-25.7h-4v10.8h-12.8v-10.8h-4v25.7H514.9z M545,207.1v-11.6h4.2l9.4,11.6h4.9l-10.8-13.5l9.8-12.2
		h-4.6l-8.6,10.9H545v-10.9h-4v25.7H545z M578.4,207.6c6.7,0,12-3.7,12-13.3c0-9.3-4.5-13.4-11.5-13.4c-7.4,0-12.5,4.4-12.5,13.2
		C566.5,202.6,570.8,207.6,578.4,207.6z M570.5,194.1c0-6.3,2.9-9.6,7.9-9.6c5.1,0,8,3.1,8,9.6v0.1c0,6.8-2.9,9.7-7.7,9.7
		c-5.4,0-8.3-3.6-8.3-9.7V194.1z M601.5,184.9c1.6,3.2,3,6.2,4.1,8.2l4.2,7.7h2.8l4.5-7.8c1.1-1.9,2.4-5,3.9-8.2
		c-0.2,2.9-0.6,5.8-0.6,8.7v13.5h4v-25.7h-5.1l-7.8,15.3l-8.1-15.3H598v25.7h4v-13.3C602.1,190.8,601.8,187.8,601.5,184.9z"/>
</g>
</svg>
