<svg width="11" height="11" viewBox="0 0 11 11" fill="none" xmlns="http://www.w3.org/2000/svg">
<g clip-path="url(#clip0)">
<path d="M10.8622 5.37113C11.0616 5.15183 11.0424 4.8157 10.8192 4.62057L5.90317 0.319001C5.68003 0.123867 5.32228 0.127954 5.10384 0.328216L0.171081 4.84991C-0.0473602 5.05017 -0.0580815 5.38586 0.147344 5.59939L0.271015 5.72819C0.47619 5.94172 0.807832 5.96718 1.01129 5.78488L1.37993 5.45475V10.288C1.37993 10.5845 1.62021 10.8246 1.91653 10.8246H3.83934C4.13566 10.8246 4.37594 10.5845 4.37594 10.288V6.90667H6.82849V10.288C6.82423 10.5843 7.03625 10.8244 7.33257 10.8244H9.37026C9.66659 10.8244 9.90686 10.5843 9.90686 10.2878V5.5228C9.90686 5.5228 10.0087 5.61202 10.1343 5.72242C10.2597 5.83261 10.5231 5.74426 10.7225 5.52474L10.8622 5.37113Z" fill="black"/>
</g>
<defs>
<clipPath id="clip0">
<rect width="11" height="11" fill="white"/>
</clipPath>
</defs>
</svg>
