<svg width="300" xmlns="http://www.w3.org/2000/svg" xmlns:xlink="http://www.w3.org/1999/xlink" viewBox="0 0 615.11 48.87"><defs><style>.cls-1{fill:#3c58bf;}.cls-2{fill:#293688;}.cls-3{fill:#ffbc00;}.cls-4{fill:#f7981d;}.cls-5{fill:#ed7c00;}.cls-6{fill:#051244;}.cls-7{fill:#ffb600;}.cls-8{fill:#ff8500;}.cls-9{fill:#ff5050;}.cls-10{fill:#e52836;}.cls-11{fill:#cb2026;}.cls-12{fill:#fff;}.cls-13{fill:#dce5e5;}.cls-14{fill:#37a72e;}.cls-14,.cls-15{fill-rule:evenodd;}.cls-15{fill:url(#Безымянный_градиент_3);}.cls-16{fill:#5f6368;}.cls-17{fill:#4285f4;}.cls-18{fill:#34a853;}.cls-19{fill:#fbbc04;}.cls-20{fill:#ea4335;}</style><linearGradient id="Безымянный_градиент_3" x1="-28" y1="414.84" x2="-27.85" y2="414.84" gradientTransform="matrix(201.76, 0, 0, -79, 5967.13, 32787.37)" gradientUnits="userSpaceOnUse"><stop offset="0" stop-color="#00a0e5"/><stop offset="1" stop-color="#0077c3"/></linearGradient></defs><title>icons_pay</title><g id="Слой_2" data-name="Слой 2"><g id="Слой_1-2" data-name="Слой 1"><path d="M531.34,8.82a6.3,6.3,0,0,1-5.05,2.38A7.12,7.12,0,0,1,528.1,6a7.52,7.52,0,0,1,5-2.58,7.62,7.62,0,0,1-1.76,5.43m1.74,2.76c-2.78-.16-5.16,1.58-6.49,1.58s-3.36-1.5-5.56-1.46a8.23,8.23,0,0,0-7,4.24c-3,5.17-.78,12.82,2.12,17,1.42,2.08,3.13,4.37,5.37,4.29s3-1.38,5.52-1.38,3.33,1.38,5.57,1.34,3.78-2.09,5.21-4.17a18.24,18.24,0,0,0,2.32-4.78,7.54,7.54,0,0,1-4.53-6.87,7.72,7.72,0,0,1,3.67-6.45,7.94,7.94,0,0,0-6.21-3.36m16.08-5.81V37H554V26.32h6.71c6.13,0,10.43-4.21,10.43-10.3S566.92,5.77,560.87,5.77ZM554,9.86h5.59c4.2,0,6.61,2.24,6.61,6.18s-2.41,6.21-6.63,6.21H554Zm26,27.37a8,8,0,0,0,7.15-4h.1V37h4.48V21.45c0-4.5-3.6-7.41-9.15-7.41-5.14,0-9,2.95-9.09,7h4.37c.36-1.92,2.14-3.18,4.58-3.18,3,0,4.63,1.38,4.63,3.92v1.72l-6,.36c-5.62.34-8.67,2.65-8.67,6.65S575.49,37.23,580,37.23Zm1.3-3.71c-2.58,0-4.22-1.24-4.22-3.14s1.58-3.1,4.6-3.28l5.39-.34v1.76C587.06,31.44,584.58,33.52,581.29,33.52Zm16.42,12c4.73,0,6.95-1.81,8.89-7.27l8.51-23.87h-4.93l-5.7,18.44h-.1l-5.71-18.44h-5.06l8.2,22.73-.44,1.38c-.74,2.34-1.94,3.24-4.08,3.24-.38,0-1.12,0-1.42-.08v3.75A13.33,13.33,0,0,0,597.71,45.48Z"/><polygon class="cls-1" points="40.77 40.41 46.42 8.64 55.25 8.64 49.77 40.41 40.77 40.41"/><polygon class="cls-2" points="40.77 40.41 48.01 8.64 55.25 8.64 49.77 40.41 40.77 40.41"/><path class="cls-1" d="M81.72,9A22.29,22.29,0,0,0,73.6,7.58c-8.82,0-15.18,4.41-15.18,10.76,0,4.77,4.42,7.24,8,8.83S71,29.82,71,31.23c0,2.12-2.83,3.18-5.3,3.18a19.11,19.11,0,0,1-8.47-1.77L56,32.11l-1.23,7.24a28.69,28.69,0,0,0,10.06,1.76c9.35,0,15.53-4.41,15.53-11.12,0-3.7-2.29-6.53-7.59-8.82-3.18-1.59-5.12-2.47-5.12-4.06,0-1.41,1.59-2.83,5.12-2.83a16.14,16.14,0,0,1,6.71,1.24l.88.35L81.72,9Z"/><path class="cls-2" d="M81.72,9A22.29,22.29,0,0,0,73.6,7.58C64.78,7.58,60,12,60,18.34c0,4.77,2.83,7.24,6.36,8.83S71,29.82,71,31.23c0,2.12-2.83,3.18-5.3,3.18a19.11,19.11,0,0,1-8.47-1.77L56,32.11l-1.23,7.24a28.69,28.69,0,0,0,10.06,1.76c9.35,0,15.53-4.41,15.53-11.12,0-3.7-2.29-6.53-7.59-8.82-3.18-1.59-5.12-2.47-5.12-4.06,0-1.41,1.59-2.83,5.12-2.83a16.14,16.14,0,0,1,6.71,1.24l.88.35L81.72,9Z"/><path class="cls-1" d="M96.9,8.64c-2.12,0-3.7.17-4.59,2.29L79.08,40.41h9.53l1.76-5.3h11.3l1.06,5.3h8.47L103.79,8.64ZM92.84,29.82c.53-1.59,3.53-9.36,3.53-9.36s.71-1.94,1.24-3.18l.53,3s1.76,7.94,2.12,9.7H92.84Z"/><path class="cls-2" d="M99,8.64c-2.12,0-3.71.17-4.59,2.29L79.08,40.41h9.53l1.76-5.3h11.3l1.06,5.3h8.47L103.79,8.64ZM92.84,29.82c.71-1.77,3.53-9.36,3.53-9.36s.71-1.94,1.24-3.18l.53,3s1.76,7.94,2.12,9.7H92.84Z"/><path class="cls-1" d="M24.53,30.88l-.88-4.59C22.06,21,16.94,15.17,11.3,12.34l7.94,28.24h9.53L43.07,8.81H33.54Z"/><path class="cls-2" d="M24.53,30.88l-.88-4.59C22.06,21,16.94,15.17,11.3,12.34l7.94,28.24h9.53L43.07,8.81H35.3Z"/><path class="cls-3" d="M0,8.64,1.59,9c11.3,2.65,19.06,9.35,22.06,17.3l-3.18-15c-.52-2.11-2.11-2.64-4-2.64Z"/><path class="cls-4" d="M0,8.64H0c11.3,2.64,20.65,9.53,23.65,17.47l-3-12.53a4.31,4.31,0,0,0-4.23-3.36Z"/><path class="cls-5" d="M0,8.64H0c11.3,2.64,20.65,9.53,23.65,17.47l-2.12-6.88C21,17.11,20.3,15,17.83,14.11Z"/><path class="cls-6" d="M33.36,29.82l-6-6-2.83,6.7-.7-4.41C22.24,20.81,17.12,15,11.47,12.17l8,28.24H29Z"/><polygon class="cls-6" points="49.77 40.41 42.19 32.64 40.77 40.41 49.77 40.41"/><path class="cls-6" d="M70.07,29.46h0c.71.71,1.06,1.24.89,1.95,0,2.11-2.83,3.17-5.3,3.17a19.25,19.25,0,0,1-8.47-1.76L56,32.29l-1.23,7.23a28.44,28.44,0,0,0,10.06,1.77c5.65,0,10.24-1.59,12.88-4.41Z"/><path class="cls-6" d="M80.31,40.41h8.3l1.76-5.3h11.3l1.06,5.3h8.47l-3-12.89L97.61,17.28l.53,2.83s1.76,7.94,2.12,9.71H92.84c.71-1.77,3.53-9.36,3.53-9.36s.71-1.94,1.24-3.18"/><path class="cls-7" d="M213.39,24.43a24.44,24.44,0,1,1-48.87,0h0a24.44,24.44,0,0,1,48.87,0Z"/><path class="cls-4" d="M189,0a24.5,24.5,0,0,1,24.44,24.43h0a24.44,24.44,0,1,1-48.87,0"/><path class="cls-8" d="M189,0a24.5,24.5,0,0,1,24.44,24.43h0A24.42,24.42,0,0,1,189,48.87"/><path class="cls-9" d="M156.12,0a24.44,24.44,0,0,0,.26,48.87,24.69,24.69,0,0,0,16.41-6.34h0A23.08,23.08,0,0,0,175.25,40h-5a29.7,29.7,0,0,1-1.81-2.46h8.66a16.51,16.51,0,0,0,1.42-2.59H167a15.27,15.27,0,0,1-1-2.58h13.45a25.86,25.86,0,0,0,1.29-7.76,33.17,33.17,0,0,0-.52-5.17h-15a18.69,18.69,0,0,1,.64-2.58h13.45a15.38,15.38,0,0,0-1-2.59H166.85a26.65,26.65,0,0,1,1.42-2.59h8.66A12.46,12.46,0,0,0,175,9.05h-4.78a21.17,21.17,0,0,1,2.46-2.46A23.91,23.91,0,0,0,156.25.26C156.25,0,156.25,0,156.12,0Z"/><path class="cls-10" d="M131.94,24.43a24.42,24.42,0,0,0,24.44,24.44,24.69,24.69,0,0,0,16.41-6.34h0A23.08,23.08,0,0,0,175.25,40h-5a29.7,29.7,0,0,1-1.81-2.46h8.66a16.51,16.51,0,0,0,1.42-2.59H167a15.27,15.27,0,0,1-1-2.58h13.45a25.86,25.86,0,0,0,1.29-7.76,33.17,33.17,0,0,0-.52-5.17h-15a18.69,18.69,0,0,1,.64-2.58h13.45a15.38,15.38,0,0,0-1-2.59H166.85a26.65,26.65,0,0,1,1.42-2.59h8.66A12.46,12.46,0,0,0,175,9.05h-4.78a21.17,21.17,0,0,1,2.46-2.46A23.91,23.91,0,0,0,156.25.26h-.13"/><path class="cls-11" d="M156.38,48.87a24.69,24.69,0,0,0,16.41-6.34h0A23.08,23.08,0,0,0,175.25,40h-5a29.7,29.7,0,0,1-1.81-2.46h8.66a16.51,16.51,0,0,0,1.42-2.59H167a15.27,15.27,0,0,1-1-2.58h13.45a25.86,25.86,0,0,0,1.29-7.76,33.17,33.17,0,0,0-.52-5.17h-15a18.69,18.69,0,0,1,.64-2.58h13.45a15.38,15.38,0,0,0-1-2.59H166.85a26.65,26.65,0,0,1,1.42-2.59h8.66A12.46,12.46,0,0,0,175,9.05h-4.78a21.17,21.17,0,0,1,2.46-2.46A23.91,23.91,0,0,0,156.25.26h-.13"/><path class="cls-12" d="M165,30.64l.39-2.2a5.63,5.63,0,0,1-.65.13c-.91,0-1-.52-.91-.78l.78-4.52h1.42l.39-2.46h-1.29l.26-1.55h-2.59s-1.55,8.53-1.55,9.57a1.94,1.94,0,0,0,2.07,2.2A4,4,0,0,0,165,30.64Z"/><path class="cls-12" d="M165.94,26.5c0,3.62,2.46,4.53,4.53,4.53a6.63,6.63,0,0,0,2.71-.39l.52-2.46a7.71,7.71,0,0,1-2.72.65c-2.84,0-2.32-2.07-2.32-2.07H174a16.64,16.64,0,0,0,.39-2.33,3.51,3.51,0,0,0-3.75-3.75C167.88,20.43,165.94,23.27,165.94,26.5Zm4.53-3.75c1.42,0,1.16,1.68,1.16,1.81h-2.84C168.79,24.43,169.05,22.75,170.47,22.75Z"/><path class="cls-12" d="M186.89,30.64l.51-2.85a6.31,6.31,0,0,1-2.2.65c-1.81,0-2.58-1.42-2.58-3,0-3.11,1.55-4.79,3.36-4.79a4.33,4.33,0,0,1,2.33.78l.39-2.71a9.13,9.13,0,0,0-3-.65c-3,0-5.94,2.58-5.94,7.5,0,3.23,1.55,5.43,4.65,5.43A11.66,11.66,0,0,0,186.89,30.64Z"/><path class="cls-12" d="M150.82,20.43a9.34,9.34,0,0,0-3.11.51l-.38,2.2a7.57,7.57,0,0,1,2.84-.52c.91,0,1.68.13,1.68.91,0,.52-.13.64-.13.64h-1.16c-2.2,0-4.66.91-4.66,3.88,0,2.33,1.56,2.85,2.46,2.85a3.9,3.9,0,0,0,2.72-1.17l-.13,1h2.32l1-7.11C154.31,20.56,151.72,20.43,150.82,20.43Zm.51,5.81c0,.39-.25,2.46-1.81,2.46a1,1,0,0,1-1-1c0-.65.39-1.56,2.33-1.56A2.06,2.06,0,0,0,151.33,26.24Z"/><path class="cls-12" d="M156.76,30.9c.65,0,3.88.13,3.88-3.36,0-3.24-3.1-2.59-3.1-3.88,0-.65.52-.91,1.42-.91.39,0,1.81.13,1.81.13l.39-2.32a9.83,9.83,0,0,0-2.46-.26c-1.94,0-3.88.77-3.88,3.36,0,3,3.24,2.71,3.24,3.88,0,.77-.91.9-1.55.9a8.39,8.39,0,0,1-2.33-.39l-.39,2.33C153.92,30.64,154.57,30.9,156.76,30.9Z"/><path class="cls-12" d="M208.35,18.36l-.52,3.49a3.6,3.6,0,0,0-2.46-1.29c-2.32,0-4.39,2.84-4.39,6.2,0,2.07,1,4.27,3.23,4.27a3.42,3.42,0,0,0,2.45-1l-.12.91h2.58l1.94-12.41Zm-1.17,6.85c0,1.42-.64,3.23-2.07,3.23-.9,0-1.42-.77-1.42-2.07,0-2.07.91-3.36,2.07-3.36C206.66,23,207.18,23.66,207.18,25.21Z"/><path class="cls-12" d="M136.73,30.77l1.55-9.31.26,9.31h1.81l3.36-9.31-1.43,9.31H145l2.07-12.41H142.8L140.22,26l-.13-7.62h-3.75l-2.07,12.41Z"/><path class="cls-12" d="M176.8,30.77c.78-4.27.91-7.76,2.72-7.11a10.3,10.3,0,0,1,.9-3h-.52c-1.16,0-2.06,1.56-2.06,1.56l.25-1.43h-2.45L174,30.9h2.84Z"/><path class="cls-12" d="M192.83,20.43a9.24,9.24,0,0,0-3.1.51l-.39,2.2a7.66,7.66,0,0,1,2.85-.52c.9,0,1.68.13,1.68.91,0,.52-.13.64-.13.64h-1.17c-2.19,0-4.65.91-4.65,3.88,0,2.33,1.55,2.85,2.46,2.85a3.86,3.86,0,0,0,2.71-1.17l-.13,1h2.33l1-7.11C196.45,20.56,193.74,20.43,192.83,20.43Zm.65,5.81c0,.39-.26,2.46-1.81,2.46a1,1,0,0,1-1-1c0-.65.39-1.56,2.33-1.56C193.35,26.24,193.35,26.24,193.48,26.24Z"/><path class="cls-12" d="M198.52,30.77c.78-4.27.91-7.76,2.72-7.11a10,10,0,0,1,.9-3h-.52c-1.16,0-2.07,1.56-2.07,1.56l.26-1.43h-2.45L195.68,30.9h2.84Z"/><path class="cls-13" d="M161,28.83A2,2,0,0,0,163.1,31a4.93,4.93,0,0,0,1.94-.39l.39-2.2a5.63,5.63,0,0,1-.65.13c-.91,0-1-.52-.91-.78l.78-4.52h1.42l.39-2.46h-1.29l.26-1.55"/><path class="cls-13" d="M167.24,26.5c0,3.62,1.16,4.53,3.23,4.53a6.63,6.63,0,0,0,2.71-.39l.52-2.46a7.71,7.71,0,0,1-2.72.65c-2.84,0-2.32-2.07-2.32-2.07H174a16.64,16.64,0,0,0,.39-2.33,3.51,3.51,0,0,0-3.75-3.75C167.88,20.43,167.24,23.27,167.24,26.5Zm3.23-3.75c1.42,0,1.68,1.68,1.68,1.81h-3.36C168.79,24.43,169.05,22.75,170.47,22.75Z"/><path class="cls-13" d="M186.89,30.64l.51-2.85a6.31,6.31,0,0,1-2.2.65c-1.81,0-2.58-1.42-2.58-3,0-3.11,1.55-4.79,3.36-4.79a4.33,4.33,0,0,1,2.33.78l.39-2.71a9.13,9.13,0,0,0-3-.65c-3,0-4.65,2.58-4.65,7.5,0,3.23.26,5.43,3.36,5.43A11.66,11.66,0,0,0,186.89,30.64Z"/><path class="cls-13" d="M147.33,23.27a7.57,7.57,0,0,1,2.84-.52c.91,0,1.68.13,1.68.91,0,.51-.13.64-.13.64h-1.16c-2.2,0-4.66.91-4.66,3.88,0,2.33,1.56,2.85,2.46,2.85a3.9,3.9,0,0,0,2.72-1.17l-.13,1h2.32l1-7.11c0-3-2.59-3.11-3.62-3.11m1.94,5.56c0,.39-1.55,2.46-3.11,2.46a1,1,0,0,1-1-1c0-.65.39-1.56,2.33-1.56A10.52,10.52,0,0,0,152.63,26.24Z"/><path class="cls-13" d="M153.92,30.64a10.91,10.91,0,0,0,3,.26c.65,0,3.88.13,3.88-3.36,0-3.24-3.1-2.59-3.1-3.88,0-.65.52-.91,1.42-.91.39,0,1.81.13,1.81.13l.39-2.32a9.83,9.83,0,0,0-2.46-.26c-1.94,0-2.58.77-2.58,3.36,0,3,1.94,2.71,1.94,3.88,0,.77-.91.9-1.56.9"/><path class="cls-13" d="M207.83,21.85a3.6,3.6,0,0,0-2.46-1.29c-2.32,0-3.1,2.84-3.1,6.2,0,2.07-.26,4.27,1.94,4.27a3.42,3.42,0,0,0,2.45-1l-.12.91h2.58l1.94-12.41m-3.36,6.72c0,1.42-1.16,3.23-2.59,3.23-.9,0-1.42-.77-1.42-2.07,0-2.07.91-3.36,2.07-3.36A2,2,0,0,1,207.7,25.21Z"/><path class="cls-13" d="M136.73,30.77l1.55-9.31.26,9.31h1.81l3.36-9.31-1.43,9.31H145l2.07-12.41h-3.23L140.22,26l-.13-7.62h-1.42l-4.4,12.41Z"/><path class="cls-13" d="M174.09,30.77h2.71c.78-4.27.91-7.76,2.72-7.11a10.3,10.3,0,0,1,.9-3h-.52c-1.16,0-2.06,1.56-2.06,1.56l.25-1.43"/><path class="cls-13" d="M189.34,23.27a7.66,7.66,0,0,1,2.85-.52c.9,0,1.68.13,1.68.91,0,.51-.13.64-.13.64h-1.17c-2.19,0-4.65.91-4.65,3.88,0,2.33,1.55,2.85,2.46,2.85a3.86,3.86,0,0,0,2.71-1.17l-.13,1h2.33l1-7.11c0-3-2.58-3.11-3.62-3.11m1.94,5.56c0,.39-1.55,2.46-3.1,2.46a1,1,0,0,1-1-1c0-.65.38-1.56,2.32-1.56A11.33,11.33,0,0,0,194.64,26.24Z"/><path class="cls-13" d="M195.81,30.77h2.71c.78-4.27.91-7.76,2.72-7.11a10,10,0,0,1,.9-3h-.52c-1.16,0-2.07,1.56-2.07,1.56l.26-1.43"/><g id="Page-1"><g id="Artboard"><g id="Group"><path id="Combined-Shape" class="cls-14" d="M318.18,22.93V40.06h9.51V29.91h10.79a10.58,10.58,0,0,0,9.85-7Z"/><path id="Combined-Shape-2" data-name="Combined-Shape" class="cls-15" d="M316.91,8.81c.55,7,7.17,12.53,15.26,12.53h16.55a10.72,10.72,0,0,0,.19-2A10.55,10.55,0,0,0,338.44,8.81Z"/><path id="Combined-Shape-3" data-name="Combined-Shape" class="cls-14" d="M302.82,21.17h0a.56.56,0,0,1,.5-.3.57.57,0,0,1,.57.56h0V39.9h9.52V8.81H303.9a3.83,3.83,0,0,0-3.08,2l-7.57,16.24a.66.66,0,0,1-.09.19h0a.63.63,0,0,1-.52.28.64.64,0,0,1-.64-.64V8.81h-9.51V39.9H292a3.81,3.81,0,0,0,3-2l7.77-16.67,0,0Z"/><path id="Combined-Shape-4" data-name="Combined-Shape" class="cls-14" d="M267.28,21.71,261.72,39.9h-6.84l-5.57-18.21a.63.63,0,0,0-1.24.12h0V39.9h-9.52V8.81h10.6a4.56,4.56,0,0,1,4.1,3L257.88,27c.23.76.61.75.84,0l4.63-15.15a4.54,4.54,0,0,1,4.1-3h10.6V39.9h-9.52V21.82h0a.63.63,0,0,0-1.25-.1Z"/></g></g></g><path class="cls-16" d="M428.77,23.92v13h-4.13V4.79h10.95a9.9,9.9,0,0,1,7.09,2.79,8.9,8.9,0,0,1,3,6.78,8.94,8.94,0,0,1-3,6.83,9.89,9.89,0,0,1-7.09,2.73Zm0-15.17V20h6.92a5.42,5.42,0,0,0,4.09-1.66,5.48,5.48,0,0,0,.11-7.75l-.11-.11a5.41,5.41,0,0,0-4.09-1.7Z"/><path class="cls-16" d="M455.16,14.23a10.18,10.18,0,0,1,7.23,2.45A8.66,8.66,0,0,1,465,23.39V36.94h-4v-3h-.18a7.89,7.89,0,0,1-6.82,3.77A8.92,8.92,0,0,1,448,35.51a6.9,6.9,0,0,1-2.44-5.39,6.52,6.52,0,0,1,2.58-5.43,10.86,10.86,0,0,1,6.89-2A12.3,12.3,0,0,1,461.09,24v-.94a4.73,4.73,0,0,0-1.71-3.66,5.84,5.84,0,0,0-4-1.5,6.31,6.31,0,0,0-5.48,2.92l-3.64-2.29Q449.28,14.22,455.16,14.23Zm-5.34,16a3.31,3.31,0,0,0,1.37,2.69A5,5,0,0,0,454.4,34a6.61,6.61,0,0,0,4.65-1.93,6.07,6.07,0,0,0,2.05-4.53A8.43,8.43,0,0,0,455.71,26a7,7,0,0,0-4.2,1.21,3.62,3.62,0,0,0-1.69,3Z"/><path class="cls-16" d="M487.72,15,473.93,46.64h-4.27l5.12-11.09L465.71,15h4.49l6.56,15.8h.09L483.22,15Z"/><path class="cls-17" d="M412.08,21.12a22.54,22.54,0,0,0-.32-3.76H394.34v7.12h10a8.57,8.57,0,0,1-3.69,5.61v4.62h5.95A18.07,18.07,0,0,0,412.08,21.12Z"/><path class="cls-18" d="M394.34,39.17a17.67,17.67,0,0,0,12.24-4.46l-5.95-4.62A11.2,11.2,0,0,1,384,24.23h-6.13V29A18.46,18.46,0,0,0,394.34,39.17Z"/><path class="cls-19" d="M384,24.23a11.11,11.11,0,0,1,0-7.07V12.4h-6.13a18.49,18.49,0,0,0,0,16.59Z"/><path class="cls-20" d="M394.34,9.54a10,10,0,0,1,7.09,2.77h0L406.7,7a17.71,17.71,0,0,0-12.36-4.81,18.47,18.47,0,0,0-16.5,10.17L384,17.16A11.06,11.06,0,0,1,394.34,9.54Z"/></g></g></svg>