<svg xmlns="http://www.w3.org/2000/svg" viewBox="0 0 751.3 121.7"><defs><style>.cls-1{fill:#002cba;}</style></defs><title>Ресурс 4</title><g id="Слой_2" data-name="Слой 2"><g id="Слой_1-2" data-name="Слой 1"><path class="cls-1" d="M4,121.22v-28H7.3v25h9.16v-25h3.32v25h9.16v-25h3.32v28Z"/><path class="cls-1" d="M48.26,108.26H46.38v13H43.06v-28h3.32v13l1.8-.56,9.4-12.48h3.84l-9.36,12-1.68,1.32,2,1.6,10.24,13h-4.2Z"/><path class="cls-1" d="M69.5,107.22q0-7,3-10.74a10.15,10.15,0,0,1,8.44-3.74,11.75,11.75,0,0,1,5.12,1,9.76,9.76,0,0,1,3.58,2.94,12.77,12.77,0,0,1,2.1,4.56,24.24,24.24,0,0,1,.68,5.94q0,7-3,10.74t-8.5,3.74a11.51,11.51,0,0,1-5.06-1,9.58,9.58,0,0,1-3.56-2.94,12.61,12.61,0,0,1-2.1-4.56A24.12,24.12,0,0,1,69.5,107.22Zm3.52,0a20.06,20.06,0,0,0,.46,4.4,12,12,0,0,0,1.42,3.66,7.42,7.42,0,0,0,2.46,2.52,6.5,6.5,0,0,0,3.54.94,6.9,6.9,0,0,0,5.84-2.82q2.12-2.82,2.12-8.7a20.21,20.21,0,0,0-.46-4.38A11.88,11.88,0,0,0,87,99.16a7.76,7.76,0,0,0-2.48-2.52,6.65,6.65,0,0,0-3.58-.94,6.81,6.81,0,0,0-5.78,2.82Q73,101.34,73,107.22Z"/><path class="cls-1" d="M116.54,96.18h-8.36q-.41,8-1.06,13.3a30,30,0,0,1-2,8.26,7,7,0,0,1-2.08,2.8,4.29,4.29,0,0,1-2.6.88,6.41,6.41,0,0,1-1.24-.1,4.28,4.28,0,0,1-1-.3l.44-2.88a2.94,2.94,0,0,0,.84.12,2.35,2.35,0,0,0,1.34-.44,4.47,4.47,0,0,0,1.3-1.64,15.3,15.3,0,0,0,1.06-2.88,35.66,35.66,0,0,0,.88-4.56q.38-2.76.62-6.58t.36-8.94h14.8v28h-3.32Z"/><path class="cls-1" d="M144,113.46H133.69l-2.79,7.76h-3.32l10.6-28.44h1.52l10.64,28.44h-3.52Zm-9.19-2.88H143l-3.11-8.52-1-4.24h0l-1,4.32Z"/><path class="cls-1" d="M184.62,107.22q0-7,3-10.74A10.15,10.15,0,0,1,196,92.74a11.75,11.75,0,0,1,5.12,1,9.76,9.76,0,0,1,3.58,2.94,12.77,12.77,0,0,1,2.1,4.56,24.24,24.24,0,0,1,.68,5.94q0,7-3,10.74T196,121.7a11.51,11.51,0,0,1-5.06-1,9.58,9.58,0,0,1-3.56-2.94,12.61,12.61,0,0,1-2.1-4.56A24.12,24.12,0,0,1,184.62,107.22Zm3.52,0a20.06,20.06,0,0,0,.46,4.4,12,12,0,0,0,1.42,3.66,7.42,7.42,0,0,0,2.46,2.52,6.5,6.5,0,0,0,3.54.94,6.9,6.9,0,0,0,5.84-2.82q2.12-2.82,2.12-8.7a20.21,20.21,0,0,0-.46-4.38,11.88,11.88,0,0,0-1.44-3.68,7.76,7.76,0,0,0-2.48-2.52A6.65,6.65,0,0,0,196,95.7a6.81,6.81,0,0,0-5.78,2.82Q188.14,101.34,188.14,107.22Z"/><path class="cls-1" d="M217.14,93.5a20.2,20.2,0,0,1,3.28-.48q1.76-.12,3.48-.12a20.06,20.06,0,0,1,3.74.36,10.11,10.11,0,0,1,3.46,1.32,7.4,7.4,0,0,1,2.54,2.64,8.45,8.45,0,0,1,1,4.28,9.26,9.26,0,0,1-.92,4.32,8,8,0,0,1-2.44,2.86,9.71,9.71,0,0,1-3.48,1.58,16.92,16.92,0,0,1-4,.48h-.66c-.31,0-.63,0-1,0s-.66,0-1-.06a4.66,4.66,0,0,1-.68-.08v10.64h-3.32ZM224,95.78c-.69,0-1.36,0-2,0a7.39,7.39,0,0,0-1.52.2v11.6a1.85,1.85,0,0,0,.64.1l.92,0c.32,0,.63,0,.92,0h.64a13.58,13.58,0,0,0,2.7-.26,6.83,6.83,0,0,0,2.42-.94,4.92,4.92,0,0,0,1.74-1.92,6.67,6.67,0,0,0,.66-3.16,5.58,5.58,0,0,0-.62-2.74A5,5,0,0,0,228.84,97a7,7,0,0,0-2.3-.94A12.39,12.39,0,0,0,224,95.78Z"/><path class="cls-1" d="M254.27,113.46H244l-2.78,7.76H237.9l10.6-28.44H250l10.64,28.44h-3.52Zm-9.19-2.88h8.2l-3.11-8.52-1-4.24h0l-1,4.32Z"/><path class="cls-1" d="M283.78,96.18h-8.72v25h-3.32v-25H263v-3h20.76Z"/><path class="cls-1" d="M288.82,107.22q0-7,3-10.74a10.15,10.15,0,0,1,8.44-3.74,11.75,11.75,0,0,1,5.12,1,9.76,9.76,0,0,1,3.58,2.94,12.77,12.77,0,0,1,2.1,4.56,24.24,24.24,0,0,1,.68,5.94q0,7-3,10.74t-8.5,3.74a11.51,11.51,0,0,1-5.06-1,9.58,9.58,0,0,1-3.56-2.94,12.61,12.61,0,0,1-2.1-4.56A24.12,24.12,0,0,1,288.82,107.22Zm3.52,0a20.06,20.06,0,0,0,.46,4.4,12,12,0,0,0,1.42,3.66,7.42,7.42,0,0,0,2.46,2.52,6.5,6.5,0,0,0,3.54.94,6.9,6.9,0,0,0,5.84-2.82q2.12-2.82,2.12-8.7a20.21,20.21,0,0,0-.46-4.38,11.88,11.88,0,0,0-1.44-3.68,7.76,7.76,0,0,0-2.48-2.52,6.65,6.65,0,0,0-3.58-.94,6.81,6.81,0,0,0-5.78,2.82Q292.34,101.34,292.34,107.22Z"/><path class="cls-1" d="M321.34,93.5a20.2,20.2,0,0,1,3.28-.48q1.75-.12,3.48-.12a20.06,20.06,0,0,1,3.74.36,10.11,10.11,0,0,1,3.46,1.32,7.4,7.4,0,0,1,2.54,2.64,8.45,8.45,0,0,1,1,4.28,9.26,9.26,0,0,1-.92,4.32,8,8,0,0,1-2.44,2.86,9.71,9.71,0,0,1-3.48,1.58,16.92,16.92,0,0,1-4,.48h-.66c-.31,0-.63,0-1,0s-.66,0-1-.06a4.66,4.66,0,0,1-.68-.08v10.64h-3.32Zm6.84,2.28c-.69,0-1.36,0-2,0a7.39,7.39,0,0,0-1.52.2v11.6a1.85,1.85,0,0,0,.64.1l.92,0c.32,0,.63,0,.92,0h.64a13.58,13.58,0,0,0,2.7-.26,6.83,6.83,0,0,0,2.42-.94,4.92,4.92,0,0,0,1.74-1.92,6.67,6.67,0,0,0,.66-3.16,5.58,5.58,0,0,0-.62-2.74A5,5,0,0,0,333,97a7,7,0,0,0-2.3-.94A12.39,12.39,0,0,0,328.18,95.78Z"/><path class="cls-1" d="M364.94,120.06a7.09,7.09,0,0,1-3,1.28,20.4,20.4,0,0,1-3.92.36,12.73,12.73,0,0,1-4.72-.86,10.17,10.17,0,0,1-3.84-2.62,12.61,12.61,0,0,1-2.6-4.5,19.66,19.66,0,0,1-1-6.5,18.46,18.46,0,0,1,1.06-6.66,12.83,12.83,0,0,1,2.8-4.48,10.86,10.86,0,0,1,3.9-2.54,12.67,12.67,0,0,1,4.4-.8,24.39,24.39,0,0,1,3.92.26,13.28,13.28,0,0,1,2.6.7l-.8,3a12.55,12.55,0,0,0-5.48-1,9.19,9.19,0,0,0-3.24.6,7.49,7.49,0,0,0-2.86,2,10.07,10.07,0,0,0-2,3.56,16.61,16.61,0,0,0-.76,5.4,16,16,0,0,0,.72,5,10.37,10.37,0,0,0,2,3.6,8.12,8.12,0,0,0,3,2.16,9.39,9.39,0,0,0,3.7.72,12.16,12.16,0,0,0,3.14-.36,8.45,8.45,0,0,0,2.26-.92Z"/><path class="cls-1" d="M379.06,108.26h-1.88v13h-3.32v-28h3.32v13l1.8-.56,9.4-12.48h3.84l-9.36,12-1.68,1.32,2,1.6,10.24,13h-4.2Z"/><path class="cls-1" d="M400.3,107.22q0-7,3-10.74a10.15,10.15,0,0,1,8.44-3.74,11.75,11.75,0,0,1,5.12,1,9.76,9.76,0,0,1,3.58,2.94,13,13,0,0,1,2.1,4.56,24.24,24.24,0,0,1,.68,5.94q0,7-3,10.74t-8.5,3.74a11.48,11.48,0,0,1-5.06-1,9.5,9.5,0,0,1-3.56-2.94,12.61,12.61,0,0,1-2.1-4.56A23.65,23.65,0,0,1,400.3,107.22Zm3.52,0a20.06,20.06,0,0,0,.46,4.4,12,12,0,0,0,1.42,3.66,7.42,7.42,0,0,0,2.46,2.52,6.5,6.5,0,0,0,3.54.94,6.9,6.9,0,0,0,5.84-2.82q2.11-2.82,2.12-8.7a20.85,20.85,0,0,0-.46-4.38,11.88,11.88,0,0,0-1.44-3.68,7.86,7.86,0,0,0-2.48-2.52,6.65,6.65,0,0,0-3.58-.94,6.81,6.81,0,0,0-5.78,2.82Q403.82,101.34,403.82,107.22Z"/><path class="cls-1" d="M447.82,96.18H436.14v25h-3.32v-28h15Z"/><path class="cls-1" d="M452.42,107.22q0-7,3-10.74a10.13,10.13,0,0,1,8.44-3.74,11.75,11.75,0,0,1,5.12,1,9.76,9.76,0,0,1,3.58,2.94,13.12,13.12,0,0,1,2.1,4.56,24.24,24.24,0,0,1,.68,5.94q0,7-3,10.74t-8.5,3.74a11.48,11.48,0,0,1-5.06-1,9.5,9.5,0,0,1-3.56-2.94,12.61,12.61,0,0,1-2.1-4.56A23.65,23.65,0,0,1,452.42,107.22Zm3.52,0a20.06,20.06,0,0,0,.46,4.4,11.74,11.74,0,0,0,1.42,3.66,7.42,7.42,0,0,0,2.46,2.52,6.5,6.5,0,0,0,3.54.94,6.91,6.91,0,0,0,5.84-2.82q2.11-2.82,2.12-8.7a20.85,20.85,0,0,0-.46-4.38,11.88,11.88,0,0,0-1.44-3.68,7.86,7.86,0,0,0-2.48-2.52,6.68,6.68,0,0,0-3.58-.94A6.8,6.8,0,0,0,458,98.52Q455.94,101.34,455.94,107.22Z"/><path class="cls-1" d="M531.42,102.26l.24-3.2h-.16l-1.72,3.28-13.52,18.88h-2v-28h3.32v19.2l-.28,3.16h.16l1.76-3.28,13.52-19.08h2v28h-3.32Z"/><path class="cls-1" d="M563.46,120.06a7.14,7.14,0,0,1-3,1.28,20.47,20.47,0,0,1-3.92.36,12.69,12.69,0,0,1-4.72-.86,10.17,10.17,0,0,1-3.84-2.62,12.47,12.47,0,0,1-2.6-4.5,19.66,19.66,0,0,1-1-6.5,18.46,18.46,0,0,1,1.06-6.66,12.69,12.69,0,0,1,2.8-4.48,10.86,10.86,0,0,1,3.9-2.54,12.63,12.63,0,0,1,4.4-.8,24.48,24.48,0,0,1,3.92.26,13.28,13.28,0,0,1,2.6.7l-.8,3a12.55,12.55,0,0,0-5.48-1,9.11,9.11,0,0,0-3.24.6,7.49,7.49,0,0,0-2.86,2,9.92,9.92,0,0,0-2,3.56,16.61,16.61,0,0,0-.76,5.4,16,16,0,0,0,.72,5,10.37,10.37,0,0,0,2,3.6,8,8,0,0,0,3,2.16,9.35,9.35,0,0,0,3.7.72,12.22,12.22,0,0,0,3.14-.36,8.59,8.59,0,0,0,2.26-.92Z"/><path class="cls-1" d="M577.58,108.26H575.7v13h-3.32v-28h3.32v13l1.8-.56,9.4-12.48h3.84l-9.36,12-1.68,1.32,2,1.6,10.24,13h-4.2Z"/><path class="cls-1" d="M608.66,108l1,3.56h.2l.8-3.68,5.36-14.64h3.4l-7.08,18.2c-.72,1.9-1.36,3.48-1.9,4.74a16.82,16.82,0,0,1-1.66,3.08,5.21,5.21,0,0,1-1.8,1.68,5,5,0,0,1-2.36.5,7.88,7.88,0,0,1-2.1-.22,4.93,4.93,0,0,1-1.46-.66l1-2.76a4.62,4.62,0,0,0,1.48.56,7.1,7.1,0,0,0,1.24.12,2.23,2.23,0,0,0,1.88-1.14,11.39,11.39,0,0,0,1.32-3.38L597.66,93.22h3.84Z"/><path class="cls-1" d="M643.82,120.06a7.14,7.14,0,0,1-3,1.28,20.47,20.47,0,0,1-3.92.36,12.69,12.69,0,0,1-4.72-.86,10.17,10.17,0,0,1-3.84-2.62,12.47,12.47,0,0,1-2.6-4.5,19.66,19.66,0,0,1-1-6.5,18.46,18.46,0,0,1,1.06-6.66,12.69,12.69,0,0,1,2.8-4.48,10.86,10.86,0,0,1,3.9-2.54,12.63,12.63,0,0,1,4.4-.8,24.48,24.48,0,0,1,3.92.26,13.28,13.28,0,0,1,2.6.7l-.8,3a12.55,12.55,0,0,0-5.48-1,9.11,9.11,0,0,0-3.24.6,7.49,7.49,0,0,0-2.86,2,9.92,9.92,0,0,0-2,3.56,16.61,16.61,0,0,0-.76,5.4,16,16,0,0,0,.72,5,10.37,10.37,0,0,0,2,3.6,8,8,0,0,0,3,2.16,9.35,9.35,0,0,0,3.7.72,12.22,12.22,0,0,0,3.14-.36,8.59,8.59,0,0,0,2.26-.92Z"/><path class="cls-1" d="M669.62,120.06a7.14,7.14,0,0,1-3,1.28,20.47,20.47,0,0,1-3.92.36,12.69,12.69,0,0,1-4.72-.86,10.17,10.17,0,0,1-3.84-2.62,12.47,12.47,0,0,1-2.6-4.5,19.66,19.66,0,0,1-1-6.5,18.46,18.46,0,0,1,1.06-6.66,12.69,12.69,0,0,1,2.8-4.48,10.86,10.86,0,0,1,3.9-2.54,12.63,12.63,0,0,1,4.4-.8,24.48,24.48,0,0,1,3.92.26,13.28,13.28,0,0,1,2.6.7l-.8,3a12.55,12.55,0,0,0-5.48-1,9.11,9.11,0,0,0-3.24.6,7.49,7.49,0,0,0-2.86,2,9.92,9.92,0,0,0-2,3.56,16.61,16.61,0,0,0-.76,5.4,16,16,0,0,0,.72,5,10.37,10.37,0,0,0,2,3.6,8,8,0,0,0,3,2.16,9.35,9.35,0,0,0,3.7.72,12.22,12.22,0,0,0,3.14-.36,8.59,8.59,0,0,0,2.26-.92Z"/><path class="cls-1" d="M696.14,96.18h-8.72v25H684.1v-25h-8.72v-3h20.76Z"/><path class="cls-1" d="M721.14,99.62a7,7,0,0,1-1.28,4,6.51,6.51,0,0,1-1.64,1.58,7.59,7.59,0,0,1-2.36,1v.16a10.15,10.15,0,0,1,2.3.68,6.3,6.3,0,0,1,1.94,1.32,6.56,6.56,0,0,1,1.36,2,7.23,7.23,0,0,1,.52,2.84,7.42,7.42,0,0,1-.9,3.74,7.61,7.61,0,0,1-2.36,2.58,10.44,10.44,0,0,1-3.34,1.48,15.54,15.54,0,0,1-3.84.48h-1.6q-.93,0-1.92-.06c-.67,0-1.34-.09-2-.16a9.87,9.87,0,0,1-1.76-.3V93.46c1-.16,2.13-.29,3.44-.4s2.73-.16,4.28-.16a20.45,20.45,0,0,1,3.18.26,9,9,0,0,1,2.94,1,6.31,6.31,0,0,1,2.18,2.06A6.17,6.17,0,0,1,721.14,99.62Zm-11.48,5.92c.45,0,1,0,1.64,0a15.3,15.3,0,0,0,1.6-.12,10.4,10.4,0,0,0,1.8-.78,6.83,6.83,0,0,0,1.5-1.08,4.66,4.66,0,0,0,1-1.44,4.21,4.21,0,0,0,.38-1.78,4.34,4.34,0,0,0-.5-2.18,4,4,0,0,0-1.34-1.38,6,6,0,0,0-1.92-.74,11.56,11.56,0,0,0-2.2-.22c-.88,0-1.69,0-2.42.06a11.37,11.37,0,0,0-1.66.18v9.52Zm2.2,13.12a10.21,10.21,0,0,0,2.48-.3,6.22,6.22,0,0,0,2.12-1,5,5,0,0,0,1.46-1.62,4.58,4.58,0,0,0,.54-2.28,4.34,4.34,0,0,0-2.38-4.2,7.73,7.73,0,0,0-2.38-.76,18,18,0,0,0-2.64-.2h-3.48v10a3.3,3.3,0,0,0,.8.12l1.12.08c.4,0,.81,0,1.24.06S711.54,118.66,711.86,118.66Z"/><path class="cls-1" d="M744.91,113.46H734.64l-2.78,7.76h-3.32l10.6-28.44h1.52l10.64,28.44h-3.52Zm-9.19-2.88h8.2l-3.11-8.52-1-4.24h0l-1,4.32Z"/><path class="cls-1" d="M89,32H85.14V58.58H78.33V1.18h6.81V27.92l3.69-1.15L108.1,1.18H116L96.78,25.87l-3.44,2.7,4.18,3.28,21,26.73H109.9Z"/><path class="cls-1" d="M124.33,29.88q0-14.34,6.07-22T147.7.2a24,24,0,0,1,10.5,2.13,19.66,19.66,0,0,1,7.34,6,26.33,26.33,0,0,1,4.3,9.35,49.08,49.08,0,0,1,1.4,12.17q0,14.36-6.11,22T147.7,59.57a23.49,23.49,0,0,1-10.37-2.13,19.79,19.79,0,0,1-7.3-6,26.15,26.15,0,0,1-4.3-9.35A49.11,49.11,0,0,1,124.33,29.88Zm7.22,0a41.59,41.59,0,0,0,.94,9,24.61,24.61,0,0,0,2.91,7.51,15.37,15.37,0,0,0,5,5.16,13.34,13.34,0,0,0,7.26,1.93,14.14,14.14,0,0,0,12-5.78Q164,41.93,164,29.88a42.46,42.46,0,0,0-.94-9,23.9,23.9,0,0,0-3-7.54A15.9,15.9,0,0,0,155,8.19a13.59,13.59,0,0,0-7.34-1.92,14,14,0,0,0-11.85,5.78Q131.54,17.83,131.55,29.88Z"/><path class="cls-1" d="M182.8,1.76a42,42,0,0,1,6.72-1c2.41-.16,4.78-.24,7.13-.24a40.48,40.48,0,0,1,7.67.74A20.72,20.72,0,0,1,211.41,4a15.2,15.2,0,0,1,5.21,5.41,17.24,17.24,0,0,1,2,8.78A18.86,18.86,0,0,1,216.74,27a16.53,16.53,0,0,1-5,5.87,20.37,20.37,0,0,1-7.13,3.24,35,35,0,0,1-8.28,1H195c-.63,0-1.28,0-2,0s-1.36-.07-2-.12a13.9,13.9,0,0,1-1.4-.17V58.58h-6.8Zm14,4.67c-1.42,0-2.79,0-4.1.08a14.88,14.88,0,0,0-3.12.41V30.7a4.42,4.42,0,0,0,1.31.21l1.89.08c.66,0,1.28,0,1.89,0H196a28.55,28.55,0,0,0,5.53-.53,14.39,14.39,0,0,0,5-1.93,10.16,10.16,0,0,0,3.57-3.93,13.78,13.78,0,0,0,1.35-6.48,11.31,11.31,0,0,0-1.27-5.62,10.06,10.06,0,0,0-3.36-3.61A14.08,14.08,0,0,0,202.07,7,24.06,24.06,0,0,0,196.82,6.43Z"/><path class="cls-1" d="M224.86,29.88q0-14.34,6.07-22T248.23.2a24,24,0,0,1,10.5,2.13,19.66,19.66,0,0,1,7.34,6,26.33,26.33,0,0,1,4.3,9.35,49.08,49.08,0,0,1,1.4,12.17q0,14.36-6.11,22t-17.43,7.67a23.49,23.49,0,0,1-10.37-2.13,19.79,19.79,0,0,1-7.3-6,26.15,26.15,0,0,1-4.3-9.35A49.11,49.11,0,0,1,224.86,29.88Zm7.22,0a41.59,41.59,0,0,0,.94,9,24.61,24.61,0,0,0,2.91,7.51,15.37,15.37,0,0,0,5,5.16,13.34,13.34,0,0,0,7.26,1.93,14.14,14.14,0,0,0,12-5.78q4.35-5.79,4.35-17.84a42.46,42.46,0,0,0-.94-9,23.9,23.9,0,0,0-3-7.54,15.9,15.9,0,0,0-5.08-5.17,13.59,13.59,0,0,0-7.34-1.92,14,14,0,0,0-11.85,5.78Q232.08,17.83,232.08,29.88Z"/><path class="cls-1" d="M313.09,7.25H296q-.82,16.41-2.18,27.27t-4.06,16.93a14.31,14.31,0,0,1-4.26,5.74,8.85,8.85,0,0,1-5.33,1.8,14.3,14.3,0,0,1-2.54-.2,10.13,10.13,0,0,1-2-.62l.9-5.9a6.06,6.06,0,0,0,1.72.25,4.85,4.85,0,0,0,2.75-.91,9.1,9.1,0,0,0,2.66-3.36,31.25,31.25,0,0,0,2.18-5.9,74,74,0,0,0,1.8-9.35q.78-5.66,1.27-13.49t.74-18.33H319.9v57.4h-6.81Z"/><path class="cls-1" d="M333.84,1.18h6.8V23.49c.28-.06.74-.13,1.4-.21s1.36-.15,2.13-.2l2.38-.17c.82-.05,1.56-.08,2.21-.08a37.37,37.37,0,0,1,7.67.78,18.48,18.48,0,0,1,6.64,2.75,14.77,14.77,0,0,1,4.72,5.29,17.48,17.48,0,0,1,1.8,8.4,19.61,19.61,0,0,1-1.72,8.53,16.6,16.6,0,0,1-4.76,6A20.24,20.24,0,0,1,356,58.09a32.17,32.17,0,0,1-8.82,1.15c-.76,0-1.69,0-2.78,0s-2.26-.08-3.49-.17-2.46-.2-3.69-.36a29.74,29.74,0,0,1-3.4-.66Zm14.27,52.16a19.05,19.05,0,0,0,5.53-.78,13.27,13.27,0,0,0,4.55-2.38,11.09,11.09,0,0,0,3.08-4,13.33,13.33,0,0,0,1.1-5.62,12.07,12.07,0,0,0-1.23-5.74,10,10,0,0,0-3.23-3.64,12.55,12.55,0,0,0-4.64-1.89,26.76,26.76,0,0,0-5.41-.53c-.49,0-1.09,0-1.8.08l-2.14.16c-.71.06-1.36.14-2,.25l-1.32.24V52.84a21.94,21.94,0,0,0,3.28.37C345.35,53.29,346.74,53.34,348.11,53.34Z"/><path class="cls-1" d="M428.88,7.25H404.93V58.58h-6.8V1.18h30.75Z"/><path class="cls-1" d="M430.11,29.88q0-14.34,6.06-22T453.48.2A24,24,0,0,1,464,2.33a19.66,19.66,0,0,1,7.34,6,26.34,26.34,0,0,1,4.31,9.35A49.1,49.1,0,0,1,477,29.88q0,14.36-6.11,22t-17.42,7.67a23.54,23.54,0,0,1-10.38-2.13,19.87,19.87,0,0,1-7.3-6,26.33,26.33,0,0,1-4.3-9.35A49.13,49.13,0,0,1,430.11,29.88Zm7.21,0a42.22,42.22,0,0,0,.94,9,24.37,24.37,0,0,0,2.92,7.51,15.37,15.37,0,0,0,5,5.16,13.34,13.34,0,0,0,7.26,1.93,14.17,14.17,0,0,0,12-5.78q4.33-5.79,4.34-17.84a41.82,41.82,0,0,0-.94-9,23.89,23.89,0,0,0-3-7.54,15.92,15.92,0,0,0-5.09-5.17,13.55,13.55,0,0,0-7.33-1.92,14,14,0,0,0-11.85,5.78Q437.33,17.83,437.32,29.88Z"/><path class="cls-1" d="M523.17,14.3a14.19,14.19,0,0,1-2.62,8.16,13.16,13.16,0,0,1-3.36,3.24,15.62,15.62,0,0,1-4.84,2.13v.33a20.21,20.21,0,0,1,4.72,1.4,12.7,12.7,0,0,1,4,2.7,13.31,13.31,0,0,1,2.79,4.18,14.62,14.62,0,0,1,1.07,5.83,15.22,15.22,0,0,1-1.85,7.66,15.67,15.67,0,0,1-4.84,5.29,21.27,21.27,0,0,1-6.84,3,32,32,0,0,1-7.88,1h-3.28c-1.25,0-2.57,0-3.93-.12s-2.74-.2-4.1-.33a23,23,0,0,1-3.61-.62V1.68c2-.33,4.37-.61,7.05-.82s5.61-.33,8.78-.33a41.82,41.82,0,0,1,6.52.53,18.17,18.17,0,0,1,6,2.05,12.61,12.61,0,0,1,4.47,4.22A12.53,12.53,0,0,1,523.17,14.3ZM499.64,26.44c.93,0,2.05,0,3.36-.08s2.41-.14,3.28-.25a22.7,22.7,0,0,0,3.69-1.6,14.82,14.82,0,0,0,3.08-2.21,9.55,9.55,0,0,0,2.13-2.95A8.57,8.57,0,0,0,516,15.7a8.72,8.72,0,0,0-1-4.47,7.91,7.91,0,0,0-2.74-2.83,11.94,11.94,0,0,0-3.94-1.52,22.62,22.62,0,0,0-4.51-.45c-1.8,0-3.46,0-5,.12a25.42,25.42,0,0,0-3.4.37V26.44Zm4.51,26.9a20.85,20.85,0,0,0,5.08-.62,12.44,12.44,0,0,0,4.35-2,10.08,10.08,0,0,0,3-3.32,9.35,9.35,0,0,0,1.11-4.67,9.68,9.68,0,0,0-1.35-5.41,9.37,9.37,0,0,0-3.53-3.2,15,15,0,0,0-4.88-1.56,36.5,36.5,0,0,0-5.41-.41h-7.13V52.76A9.08,9.08,0,0,0,497,53l2.29.16c.82.06,1.67.1,2.54.12S503.49,53.34,504.15,53.34Z"/><path class="cls-1" d="M534.08,29.88q0-14.34,6.07-22T557.45.2A24,24,0,0,1,568,2.33a19.74,19.74,0,0,1,7.34,6,26.33,26.33,0,0,1,4.3,9.35A49.08,49.08,0,0,1,581,29.88q0,14.36-6.11,22t-17.43,7.67a23.49,23.49,0,0,1-10.37-2.13,19.79,19.79,0,0,1-7.3-6,26.15,26.15,0,0,1-4.3-9.35A49.11,49.11,0,0,1,534.08,29.88Zm7.22,0a41.59,41.59,0,0,0,.94,9,24.61,24.61,0,0,0,2.91,7.51,15.37,15.37,0,0,0,5,5.16,13.34,13.34,0,0,0,7.26,1.93,14.14,14.14,0,0,0,12-5.78q4.35-5.79,4.35-17.84a42.46,42.46,0,0,0-.94-9,23.9,23.9,0,0,0-3-7.54,15.9,15.9,0,0,0-5.08-5.17,13.59,13.59,0,0,0-7.34-1.92,14,14,0,0,0-11.85,5.78Q541.3,17.83,541.3,29.88Z"/><path class="cls-1" d="M592.55,1.76a42,42,0,0,1,6.72-1q3.6-.24,7.13-.24a40.48,40.48,0,0,1,7.67.74A20.72,20.72,0,0,1,621.16,4a15.2,15.2,0,0,1,5.21,5.41,17.24,17.24,0,0,1,2,8.78A18.86,18.86,0,0,1,626.49,27a16.53,16.53,0,0,1-5,5.87,20.37,20.37,0,0,1-7.13,3.24,35,35,0,0,1-8.28,1h-1.36c-.63,0-1.28,0-2,0s-1.35-.07-2-.12a13.9,13.9,0,0,1-1.4-.17V58.58h-6.8Zm14,4.67c-1.42,0-2.79,0-4.1.08a14.88,14.88,0,0,0-3.12.41V30.7a4.42,4.42,0,0,0,1.31.21l1.89.08c.66,0,1.28,0,1.89,0h1.31a28.55,28.55,0,0,0,5.53-.53,14.39,14.39,0,0,0,5-1.93,10.16,10.16,0,0,0,3.57-3.93,13.78,13.78,0,0,0,1.35-6.48,11.31,11.31,0,0,0-1.27-5.62,10.14,10.14,0,0,0-3.36-3.61A14.08,14.08,0,0,0,611.82,7,24.06,24.06,0,0,0,606.57,6.43Z"/><path class="cls-1" d="M673.48,19.72l.49-6.56h-.33l-3.52,6.72L642.4,58.58h-4V1.18h6.81V40.54L644.62,47h.32l3.61-6.72L676.27,1.18h4v57.4h-6.81Z"/><path class="cls-1" d="M731.29,7.25H713.41V58.58h-6.8V7.25H688.73V1.18h42.56Z"/><path class="cls-1" d="M741.78,54.81a4.69,4.69,0,0,1,1.28-3.48,4.57,4.57,0,0,1,3.4-1.27A4.83,4.83,0,0,1,750,51.33a4.6,4.6,0,0,1,1.32,3.48A4.67,4.67,0,0,1,750,58.26a4.77,4.77,0,0,1-3.52,1.31,4.52,4.52,0,0,1-3.4-1.31A4.76,4.76,0,0,1,741.78,54.81Zm1.4-53.63H750V29.64l-1.39,14.43h-4l-1.39-14.43Z"/><path class="cls-1" d="M62.66,5.47a5.22,5.22,0,1,0-10.44,0,5.16,5.16,0,0,0,2.51,4.42l-10,9.94L34.51,9.57a5.22,5.22,0,1,0-6.37,0L17.88,19.84,7.76,9.74a5.22,5.22,0,1,0-4.9.1V57.58a2,2,0,0,0,2,2h53a2,2,0,0,0,2-2V10.09a5.2,5.2,0,0,0,2.86-4.62ZM57.45,4.23a1.24,1.24,0,1,1-1.24,1.24,1.24,1.24,0,0,1,1.24-1.24ZM6.83,36.51l11-11.06,3.4,3.38L6.83,43.27Zm17.26-4.88L28.49,36,17.8,46.65H9.08Zm2.81-2.8,4.46-4.47,4.41,4.41-4.46,4.44Zm4.4,10,7.86,7.83H23.43ZM34.12,36l4.46-4.44L53.66,46.65H44.79Zm21.71,7.2L41.4,28.77l3.36-3.35L55.84,36.51v6.71Zm0-28.8V30.88l-8.25-8.25ZM31.34,4.23A1.24,1.24,0,1,1,30.1,5.47a1.24,1.24,0,0,1,1.24-1.24Zm0,7.77L42,22.62,38.58,26l-5.81-5.81a2,2,0,0,0-2.82,0L24.09,26l-3.4-3.37ZM6.83,30.88V14.42l8.24,8.23ZM5.21,4A1.25,1.25,0,1,1,4,5.21,1.26,1.26,0,0,1,5.21,4ZM6.83,55.6v-5H18.22l.36,0a2.31,2.31,0,0,0,.37,0H55.83v5Z"/></g></g></svg>