<svg xmlns="http://www.w3.org/2000/svg" viewBox="0 0 702.36 225.83"><title>logo_descriptor_2</title><g id="Слой_2" data-name="Слой 2"><g id="Слой_1-2" data-name="Слой 1"><polygon points="18.62 42.94 31.1 42.94 59.56 71.1 82.73 71.1 45.28 34.85 79.63 1.2 57.86 1.2 30.9 29.06 18.62 29.06 18.62 1.2 0.44 1.2 0.44 71.1 18.62 71.1 18.62 42.94"/><path d="M122.47,0C93.61,0,76.84,14,76.84,36.15S93.61,72.3,122.47,72.3,168,58.32,168,36.15,151.33,0,122.47,0Zm0,57.52C104.6,57.52,95,48.63,95,36.15s9.59-21.37,27.46-21.37,27.37,8.89,27.37,21.37S140.25,57.52,122.47,57.52Z"/><path d="M195.77,46.44h29.56c16,0,28.06-6,28.06-22.17S240.61,1.2,225.33,1.2H177.59V71.1h18.18Zm0-30.36h28.66c6.49,0,10.78,2.59,10.78,8.19s-4.29,8.19-10.78,8.19H195.77Z"/><path d="M306.94,72.3c28.86,0,45.54-14,45.54-36.15S335.8,0,306.94,0s-45.63,14-45.63,36.15S278.08,72.3,306.94,72.3Zm0-57.52c17.78,0,27.37,8.89,27.37,21.37s-9.59,21.37-27.37,21.37-27.46-8.89-27.46-21.37S289.07,14.78,306.94,14.78Z"/><path d="M391.64,16.08h33.15v55H443V1.2H375.26c-2,35.25-.1,55.52-13.58,55.52a42.44,42.44,0,0,1-5.09-.4V71.1c3.69.3,7.69.5,9.89.5C391,71.6,389.64,49.23,391.64,16.08Z"/><path d="M499.25,71.1c16,0,28.17-6.49,28.17-22.47,0-16.17-12.29-22.67-28.17-22.67H470.69V1.2H452.52V71.1h46.73ZM470.69,40.34h27.67c6.49,0,10.88,2.5,10.88,7.89s-4.39,8-10.88,8H470.69Z"/><polygon points="0 166.23 18.17 166.23 18.17 111.2 71.62 111.2 71.62 96.33 0 96.33 0 166.23"/><path d="M122.47,95.13c-28.86,0-45.63,14-45.63,36.15s16.77,36.15,45.63,36.15,45.54-14,45.54-36.15S151.33,95.13,122.47,95.13Zm0,57.52c-17.87,0-27.46-8.89-27.46-21.37s9.59-21.37,27.46-21.37,27.37,8.88,27.37,21.37S140.25,152.65,122.47,152.65Z"/><path d="M234.51,130.58c10.79-1.4,18.88-6.09,18.88-15.68,0-10.89-10.29-18.57-27.36-18.57H177.59v69.9h48.34c20.47,0,30.35-7.39,30.35-19C256.28,137.17,248.79,131.78,234.51,130.58Zm-38.74-20.27h29.36c6.29,0,10.08,2.59,10.08,7s-4,7-10.08,7H195.77Zm28.36,41.94H195.77V137.57h29.36c8,0,13,1.7,13,7.39C238.11,150.35,233.52,152.25,224.13,152.25Z"/><path d="M415.69,96.33H368v69.9h18.17V141.56h29.56c16,0,28.06-6,28.06-22.17S431,96.33,415.69,96.33Zm-.9,31.25H386.13V111.21h28.66c6.49,0,10.79,2.59,10.79,8.18S421.28,127.58,414.79,127.58Z"/><polygon points="470.3 153.85 470.3 96.33 452.52 96.33 452.52 166.23 480.48 166.23 517.23 108.71 517.23 166.23 535 166.23 535 96.33 507.04 96.33 470.3 153.85"/><polygon points="544.32 96.33 544.32 111.2 574.27 111.2 574.27 166.23 592.45 166.23 592.45 111.2 622.31 111.2 622.31 96.33 544.32 96.33"/><path d="M343.14,123a24.71,24.71,0,0,1-5.56-8.2,25.27,25.27,0,0,1-1.89-9.74,25.19,25.19,0,0,1-1.85,9.74,24.64,24.64,0,0,1-4.5,7.09,49,49,0,0,1-7.78-6.52,49.89,49.89,0,0,1-11.21-16.54,51,51,0,0,1-3.83-19.66,50.74,50.74,0,0,1-3.73,19.66,50,50,0,0,1-11.21,16.54,54.36,54.36,0,0,1-7.79,6.5,23.84,23.84,0,0,1-4.49-7.07,25.09,25.09,0,0,1-1.9-9.74,25.19,25.19,0,0,1-1.85,9.74,25.3,25.3,0,0,1-23.41,15.69A24.78,24.78,0,0,1,270,138a24.45,24.45,0,0,1,7.41,17.94,25.31,25.31,0,0,1,1.9-9.74,24.32,24.32,0,0,1,4.5-7.07,54.85,54.85,0,0,1,7.78,6.5,49.33,49.33,0,0,1,14.94,36.2,49.95,49.95,0,0,1,15-36.2,50.49,50.49,0,0,1,7.77-6.52,25,25,0,0,1,4.51,7.09,25.4,25.4,0,0,1,1.85,9.74A24.7,24.7,0,0,1,343.14,138a24.78,24.78,0,0,1,17.85-7.5A24.72,24.72,0,0,1,343.14,123Z"/><polygon points="30.4 222.34 18.94 222.34 18.94 204.19 15.2 204.19 15.2 222.34 3.74 222.34 3.74 204.19 0 204.19 0 225.47 34.16 225.47 34.16 204.19 30.4 204.19 30.4 222.34"/><polygon points="63.1 204.19 58.45 204.19 49.02 213.25 43.89 213.25 43.89 204.19 40.06 204.19 40.06 225.47 43.89 225.47 43.89 216.23 49.09 216.23 58.99 225.47 63.98 225.47 52.09 214.5 63.1 204.19"/><path d="M77.08,203.83c-8.6,0-13.35,4.53-13.35,11s4.75,11,13.35,11,13.34-4.53,13.34-11S85.68,203.83,77.08,203.83Zm0,18.87c-6.23,0-9.52-3.4-9.52-7.87S70.85,207,77.08,207s9.51,3.4,9.51,7.87S83.31,222.7,77.08,222.7Z"/><path d="M93.06,222.49c-.3,0-.82,0-1.49-.09v3.1c.92.09,1.92.12,2.47.12,6.65,0,6.2-6.78,6.83-18.3H113v18.15h3.83V204.19H97.44C96.86,215.8,97.38,222.49,93.06,222.49Z"/><path d="M131,204.19l-10.52,21.28h3.83l2.49-5.14h14.1l2.5,5.14h3.95l-10.55-21.28Zm-2.77,13.22,5.62-11.58,5.63,11.58Z"/><path d="M171.84,203.83c-8.6,0-13.34,4.53-13.34,11s4.74,11,13.34,11,13.35-4.53,13.35-11S180.45,203.83,171.84,203.83Zm0,18.87c-6.23,0-9.51-3.4-9.51-7.87s3.28-7.87,9.51-7.87,9.52,3.4,9.52,7.87S178.07,222.7,171.84,222.7Z"/><path d="M203.73,204.19h-14v21.28h3.83v-8.09h10.16c4.68,0,7.93-2,7.93-6.53S208.29,204.19,203.73,204.19Zm-.19,10.18h-10v-7.05h10c2.56,0,4.29,1.19,4.29,3.53S206.1,214.37,203.54,214.37Z"/><path d="M221.17,204.19l-10.52,21.28h3.83l2.5-5.14h14.1l2.49,5.14h4L227,204.19Zm-2.76,13.22L224,205.83l5.62,11.58Z"/><polygon points="235.3 207.32 244.7 207.32 244.7 225.47 248.53 225.47 248.53 207.32 257.92 207.32 257.92 204.19 235.3 204.19 235.3 207.32"/><path d="M272.9,203.83c-8.6,0-13.34,4.53-13.34,11s4.74,11,13.34,11,13.34-4.53,13.34-11S281.5,203.83,272.9,203.83Zm0,18.87c-6.23,0-9.51-3.4-9.51-7.87s3.28-7.87,9.51-7.87,9.51,3.4,9.51,7.87S279.13,222.7,272.9,222.7Z"/><path d="M304.78,204.19h-14v21.28h3.83v-8.09h10.15c4.69,0,7.94-2,7.94-6.53S309.34,204.19,304.78,204.19Zm-.18,10.18h-10v-7.05h10c2.56,0,4.29,1.19,4.29,3.53S307.16,214.37,304.6,214.37Z"/><path d="M328.88,222.7c-6.13,0-9.3-3.4-9.3-7.87s3.1-7.87,9-7.87c4.2,0,7.51,1.64,8.18,4.22l3.68-.24c-.86-4.32-5.32-7.11-11.86-7.11-8.27,0-12.8,4.53-12.8,11s4.59,11,13.13,11c7.09,0,11.07-3,11.83-7.5l-3.68-.22C336.42,220.67,333.6,222.7,328.88,222.7Z"/><polygon points="367.97 204.19 363.32 204.19 353.9 213.25 348.76 213.25 348.76 204.19 344.93 204.19 344.93 225.47 348.76 225.47 348.76 216.23 353.96 216.23 363.87 225.47 368.85 225.47 356.97 214.5 367.97 204.19"/><path d="M382,203.83c-8.6,0-13.34,4.53-13.34,11s4.74,11,13.34,11,13.35-4.53,13.35-11S390.55,203.83,382,203.83Zm0,18.87c-6.23,0-9.51-3.4-9.51-7.87S375.72,207,382,207s9.52,3.4,9.52,7.87S388.18,222.7,382,222.7Z"/><polygon points="399.85 225.47 403.68 225.47 403.68 207.32 418.15 207.32 418.15 204.19 399.85 204.19 399.85 225.47"/><path d="M433.35,203.83c-8.61,0-13.35,4.53-13.35,11s4.74,11,13.35,11,13.34-4.53,13.34-11S442,203.83,433.35,203.83Zm0,18.87c-6.23,0-9.52-3.4-9.52-7.87s3.29-7.87,9.52-7.87,9.51,3.4,9.51,7.87S439.58,222.7,433.35,222.7Z"/><polygon points="464.71 223.01 464.71 204.19 460.97 204.19 460.97 225.47 466.87 225.47 481.03 206.65 481.03 225.47 484.8 225.47 484.8 204.19 478.9 204.19 464.71 223.01"/><path d="M502.49,222.7c-6.14,0-9.3-3.4-9.3-7.87s3.1-7.87,9-7.87c4.19,0,7.5,1.64,8.17,4.22l3.68-.24c-.85-4.32-5.32-7.11-11.85-7.11-8.27,0-12.8,4.53-12.8,11s4.59,11,13.13,11c7.08,0,11.06-3,11.82-7.5l-3.67-.22C510,220.67,507.2,222.7,502.49,222.7Z"/><polygon points="541.58 204.19 536.93 204.19 527.5 213.25 522.37 213.25 522.37 204.19 518.54 204.19 518.54 225.47 522.37 225.47 522.37 216.23 527.56 216.23 537.47 225.47 542.46 225.47 530.57 214.5 541.58 204.19"/><path d="M557.59,218.17l-9.72-14h-4.26l11.13,15.41h1.48l-.3.61a4.1,4.1,0,0,1-4,2.37c-.64,0-1.52,0-2.52-.12v3c1.24.12,2.24.18,2.94.18,3.74,0,5.35-1.37,7.82-5.71l9.14-15.75H565.1Z"/><path d="M583.09,222.7c-6.14,0-9.3-3.4-9.3-7.87s3.1-7.87,9-7.87c4.19,0,7.51,1.64,8.17,4.22l3.68-.24c-.85-4.32-5.32-7.11-11.85-7.11-8.27,0-12.8,4.53-12.8,11s4.59,11,13.13,11c7.08,0,11.07-3,11.83-7.5l-3.68-.22C590.63,220.67,587.8,222.7,583.09,222.7Z"/><path d="M610.9,222.7c-6.14,0-9.3-3.4-9.3-7.87s3.1-7.87,9-7.87c4.19,0,7.5,1.64,8.17,4.22l3.68-.24c-.85-4.32-5.32-7.11-11.85-7.11-8.27,0-12.8,4.53-12.8,11s4.59,11,13.13,11c7.08,0,11.07-3,11.83-7.5l-3.68-.22C618.44,220.67,615.61,222.7,610.9,222.7Z"/><polygon points="624.37 207.32 633.76 207.32 633.76 225.47 637.59 225.47 637.59 207.32 646.98 207.32 646.98 204.19 624.37 204.19 624.37 207.32"/><path d="M667.34,214.59c3.13-.43,5.53-2,5.53-4.87,0-3.31-3-5.53-7.69-5.53H650.87v21.28h14.28c5.53,0,8.51-2.13,8.51-5.72C673.66,216.65,671.38,215,667.34,214.59Zm-12.64-7.42H665c2.28,0,4,1.06,4,3s-1.79,3-4,3H654.7Zm10.09,15.32H654.7v-6.35h10.39c2.8,0,4.74.79,4.74,3.13S668,222.49,664.79,222.49Z"/><path d="M686,204.19l-10.51,21.28h3.83l2.49-5.14h14.1l2.49,5.14h4l-10.55-21.28Zm-2.76,13.22,5.62-11.58,5.62,11.58Z"/></g></g></svg>